<svg width="24" height="24" viewBox="0 0 24 24" fill="none" xmlns="http://www.w3.org/2000/svg">
<path d="M19.488 14.3998L15.4884 18.163C15.4311 18.2171 15.3849 18.2819 15.3526 18.3538C15.3203 18.4257 15.3025 18.5032 15.3001 18.582C15.2978 18.6608 15.311 18.7392 15.339 18.8129C15.3669 18.8866 15.4092 18.954 15.4632 19.0114C15.5173 19.0688 15.5821 19.1149 15.654 19.1472C15.7259 19.1795 15.8034 19.1974 15.8822 19.1997C15.961 19.2021 16.0395 19.1889 16.1131 19.1609C16.1868 19.1329 16.2543 19.0907 16.3116 19.0366L21.4116 14.2366C21.4712 14.1805 21.5187 14.1128 21.5511 14.0377C21.5835 13.9626 21.6003 13.8816 21.6003 13.7998C21.6003 13.718 21.5835 13.637 21.5511 13.5619C21.5187 13.4868 21.4712 13.4191 21.4116 13.363L16.3116 8.563C16.2543 8.50895 16.1868 8.46673 16.1131 8.43874C16.0395 8.41075 15.961 8.39755 15.8822 8.39989C15.8034 8.40224 15.7259 8.42007 15.654 8.45238C15.5821 8.48469 15.5173 8.53084 15.4632 8.5882C15.4092 8.64557 15.3669 8.71301 15.339 8.78669C15.311 8.86037 15.2978 8.93884 15.3001 9.01762C15.3025 9.0964 15.3203 9.17395 15.3526 9.24584C15.3849 9.31773 15.4311 9.38255 15.4884 9.4366L19.488 13.1998H6.00002C5.3635 13.1998 4.75306 12.9469 4.30297 12.4969C3.85288 12.0468 3.60002 11.4363 3.60002 10.7998V5.3998C3.60002 5.24067 3.53681 5.08806 3.42429 4.97554C3.31177 4.86302 3.15915 4.7998 3.00002 4.7998C2.84089 4.7998 2.68828 4.86302 2.57576 4.97554C2.46324 5.08806 2.40002 5.24067 2.40002 5.3998V10.7998C2.40002 11.7546 2.77931 12.6703 3.45444 13.3454C4.12957 14.0205 5.04524 14.3998 6.00002 14.3998H19.488Z" fill="black"/>
</svg>
