<svg width="491" height="591" viewBox="0 0 491 591" fill="none" xmlns="http://www.w3.org/2000/svg">
<path d="M465.656 504.208C469.811 497.115 474.827 493.568 480.704 493.568C484.048 493.568 486.531 494.581 488.152 496.608C489.774 498.533 490.584 500.712 490.584 503.144C490.584 505.069 490.078 506.64 489.064 507.856C488.152 509.072 486.683 509.68 484.656 509.68C483.035 509.68 481.819 509.325 481.008 508.616C480.299 507.805 479.691 506.893 479.184 505.88C478.779 504.867 478.272 504.005 477.664 503.296C477.056 502.485 476.043 502.08 474.624 502.08C472.8 502.08 471.078 503.195 469.456 505.424C467.835 507.552 466.467 510.44 465.352 514.088C464.339 517.736 463.832 521.891 463.832 526.552V561.816C463.832 563.944 464.136 565.464 464.744 566.376C465.454 567.288 466.872 567.845 469 568.048L473.104 568.504C474.219 568.707 474.776 569.264 474.776 570.176C474.776 571.392 474.016 572 472.496 572H446.808C445.288 572 444.528 571.443 444.528 570.328C444.528 569.416 445.187 568.808 446.504 568.504L448.328 568.2C450.456 567.795 451.824 567.187 452.432 566.376C453.142 565.464 453.496 563.944 453.496 561.816V510.744C453.496 508.92 453.192 507.704 452.584 507.096C452.078 506.387 451.115 505.931 449.696 505.728L446.504 505.272C445.187 505.171 444.528 504.613 444.528 503.6C444.528 502.789 445.339 502.232 446.96 501.928C450.102 501.421 452.483 500.611 454.104 499.496C455.827 498.381 457.6 497.013 459.424 495.392C460.336 494.48 461.096 494.024 461.704 494.024C462.616 494.024 463.072 494.632 463.072 495.848V504.056C463.072 504.765 463.376 505.221 463.984 505.424C464.592 505.525 465.15 505.12 465.656 504.208Z" fill="black"/>
<path d="M425.001 573.368C420.137 573.368 415.78 571.747 411.929 568.504C408.079 565.261 404.988 560.701 402.657 554.824C400.428 548.845 399.313 541.955 399.313 534.152C399.313 526.147 400.479 519.104 402.809 513.024C405.14 506.944 408.332 502.181 412.385 498.736C416.439 495.291 420.948 493.568 425.913 493.568C431.892 493.568 436.705 496.051 440.353 501.016C444.103 505.88 445.977 513.835 445.977 524.88C445.977 528.224 444.711 529.896 442.177 529.896H413.297C411.271 529.896 410.257 531.061 410.257 533.392C410.257 544.133 411.828 552.189 414.969 557.56C418.111 562.931 422.113 565.616 426.977 565.616C430.828 565.616 433.969 564.248 436.401 561.512C438.833 558.776 440.809 554.165 442.329 547.68C442.633 546.565 443.292 546.008 444.305 546.008C445.521 546.008 445.977 547.021 445.673 549.048C444.052 558.067 441.468 564.4 437.921 568.048C434.375 571.595 430.068 573.368 425.001 573.368ZM412.841 526.096H428.193C433.057 526.096 435.489 523.563 435.489 518.496C435.489 511.909 434.679 506.741 433.057 502.992C431.436 499.243 429.004 497.368 425.761 497.368C421.809 497.368 418.465 499.648 415.729 504.208C413.095 508.768 411.372 515.253 410.561 523.664C410.359 525.285 411.119 526.096 412.841 526.096Z" fill="black"/>
<path d="M379.269 573.368C374.811 573.368 370.757 571.899 367.109 568.96C363.563 565.92 360.725 561.613 358.597 556.04C356.469 550.467 355.405 543.829 355.405 536.128C355.405 527.515 356.672 520.016 359.205 513.632C361.84 507.248 365.387 502.333 369.845 498.888C374.304 495.341 379.269 493.568 384.741 493.568C389.403 493.568 393.051 494.48 395.685 496.304C396.699 497.013 397.205 498.128 397.205 499.648L397.509 518.192C397.509 519.712 396.901 520.472 395.685 520.472C394.571 520.472 393.861 519.813 393.557 518.496C392.139 512.923 390.771 508.616 389.453 505.576C388.136 502.536 386.768 500.459 385.349 499.344C383.931 498.128 382.36 497.52 380.637 497.52C378.611 497.52 376.483 498.685 374.253 501.016C372.125 503.347 370.301 507.147 368.781 512.416C367.363 517.584 366.653 524.424 366.653 532.936C366.653 543.779 368.021 551.936 370.757 557.408C373.595 562.88 377.243 565.616 381.701 565.616C385.248 565.616 388.187 564.147 390.517 561.208C392.949 558.269 395.027 552.949 396.749 545.248C397.053 544.133 397.661 543.576 398.573 543.576C399.789 543.576 400.245 544.589 399.941 546.616C398.827 553.709 397.256 559.232 395.229 563.184C393.304 567.035 390.973 569.72 388.237 571.24C385.603 572.659 382.613 573.368 379.269 573.368Z" fill="black"/>
<path d="M292.671 572C291.151 572 290.391 571.443 290.391 570.328C290.391 569.416 291.05 568.808 292.367 568.504L294.191 568.2C296.319 567.795 297.687 567.187 298.295 566.376C299.004 565.464 299.359 563.944 299.359 561.816V510.744C299.359 508.92 299.055 507.704 298.447 507.096C297.94 506.387 296.978 505.931 295.559 505.728L292.367 505.272C291.05 505.171 290.391 504.613 290.391 503.6C290.391 502.789 291.202 502.232 292.823 501.928C295.964 501.421 298.346 500.611 299.967 499.496C301.69 498.381 303.463 497.013 305.287 495.392C306.199 494.48 306.959 494.024 307.567 494.024C308.479 494.024 308.935 494.632 308.935 495.848V502.688C308.935 503.6 309.239 504.208 309.847 504.512C310.556 504.715 311.316 504.411 312.127 503.6C316.18 499.749 319.727 497.115 322.767 495.696C325.908 494.277 329.202 493.568 332.647 493.568C337.207 493.568 340.855 495.189 343.591 498.432C346.327 501.573 347.695 506.235 347.695 512.416V561.816C347.695 563.944 347.999 565.464 348.607 566.376C349.316 567.187 350.735 567.744 352.863 568.048L356.207 568.504C357.322 568.707 357.879 569.315 357.879 570.328C357.879 571.443 357.271 572 356.055 572H330.519C329.1 572 328.391 571.443 328.391 570.328C328.391 569.315 328.948 568.707 330.063 568.504L332.191 568.2C334.319 567.896 335.687 567.288 336.295 566.376C337.004 565.464 337.359 563.944 337.359 561.816V514.088C337.359 509.123 336.447 505.627 334.623 503.6C332.799 501.573 330.215 500.56 326.871 500.56C323.628 500.56 320.69 501.523 318.055 503.448C315.522 505.272 313.495 507.755 311.975 510.896C310.455 513.936 309.695 517.331 309.695 521.08V561.816C309.695 563.944 309.999 565.464 310.607 566.376C311.316 567.288 312.735 567.845 314.863 568.048L318.967 568.504C320.082 568.707 320.639 569.264 320.639 570.176C320.639 571.392 319.879 572 318.359 572H292.671Z" fill="black"/>
<path d="M253.24 573.368C248.984 573.368 245.488 572.051 242.752 569.416C240.016 566.68 238.648 563.083 238.648 558.624C238.648 554.267 240.016 550.163 242.752 546.312C245.488 542.36 249.237 538.813 254 535.672C258.763 532.531 264.184 529.997 270.264 528.072C271.581 527.667 272.24 526.805 272.24 525.488V511.656C272.24 506.792 271.48 503.347 269.96 501.32C268.44 499.192 266.363 498.128 263.728 498.128C261.195 498.128 258.864 499.293 256.736 501.624C254.709 503.853 253.24 507.653 252.328 513.024C251.821 516.267 250.707 518.648 248.984 520.168C247.363 521.587 245.691 522.296 243.968 522.296C241.131 522.296 239.712 520.877 239.712 518.04C239.712 515.101 240.523 512.213 242.144 509.376C243.867 506.437 246.096 503.803 248.832 501.472C251.568 499.04 254.557 497.115 257.8 495.696C261.043 494.277 264.285 493.568 267.528 493.568C277.56 493.568 282.576 499.395 282.576 511.048V557.56C282.576 561.816 283.64 563.944 285.768 563.944C287.085 563.944 288.301 563.083 289.416 561.36C290.531 559.536 291.088 556.496 291.088 552.24C291.088 550.619 291.747 549.808 293.064 549.808C294.28 549.808 294.888 550.669 294.888 552.392C294.888 559.789 293.571 565.16 290.936 568.504C288.403 571.747 285.515 573.368 282.272 573.368C279.84 573.368 277.915 572.405 276.496 570.48C275.077 568.453 274.115 566.072 273.608 563.336C273.507 562.323 273.051 561.816 272.24 561.816C271.531 561.715 270.821 562.171 270.112 563.184C267.68 566.528 265.197 569.061 262.664 570.784C260.131 572.507 256.989 573.368 253.24 573.368ZM257.344 566.376C259.979 566.376 262.411 565.464 264.64 563.64C266.869 561.715 268.693 559.181 270.112 556.04C271.531 552.899 272.24 549.352 272.24 545.4V534.304C272.24 532.379 271.176 531.821 269.048 532.632C262.867 534.861 258.053 537.952 254.608 541.904C251.264 545.755 249.592 550.416 249.592 555.888C249.592 562.88 252.176 566.376 257.344 566.376Z" fill="black"/>
<path d="M212.242 572C211.026 572 210.418 571.443 210.418 570.328C210.418 569.315 210.975 568.707 212.09 568.504L214.218 568.2C216.346 567.896 217.916 567.288 218.93 566.376C219.943 565.464 220.45 563.944 220.45 561.816V474.72C220.45 472.896 220.146 471.629 219.538 470.92C219.031 470.211 218.068 469.805 216.65 469.704L213.154 469.248C212.039 469.045 211.482 468.437 211.482 467.424C211.482 466.411 212.039 465.803 213.154 465.6C215.991 464.992 218.423 464.283 220.45 463.472C222.476 462.661 224.148 461.851 225.466 461.04C227.087 460.027 228.303 459.52 229.114 459.52C230.228 459.52 230.786 460.331 230.786 461.952V561.816C230.786 563.944 231.09 565.464 231.698 566.376C232.407 567.187 233.826 567.744 235.954 568.048L239.45 568.504C240.564 568.707 241.122 569.315 241.122 570.328C241.122 571.443 240.514 572 239.298 572H212.242Z" fill="black"/>
<path d="M191.954 573.368C187.09 573.368 182.733 571.747 178.882 568.504C175.032 565.261 171.941 560.701 169.61 554.824C167.381 548.845 166.266 541.955 166.266 534.152C166.266 526.147 167.432 519.104 169.762 513.024C172.093 506.944 175.285 502.181 179.338 498.736C183.392 495.291 187.901 493.568 192.866 493.568C198.845 493.568 203.658 496.051 207.306 501.016C211.056 505.88 212.93 513.835 212.93 524.88C212.93 528.224 211.664 529.896 209.13 529.896H180.25C178.224 529.896 177.21 531.061 177.21 533.392C177.21 544.133 178.781 552.189 181.922 557.56C185.064 562.931 189.066 565.616 193.93 565.616C197.781 565.616 200.922 564.248 203.354 561.512C205.786 558.776 207.762 554.165 209.282 547.68C209.586 546.565 210.245 546.008 211.258 546.008C212.474 546.008 212.93 547.021 212.626 549.048C211.005 558.067 208.421 564.4 204.874 568.048C201.328 571.595 197.021 573.368 191.954 573.368ZM179.794 526.096H195.146C200.01 526.096 202.442 523.563 202.442 518.496C202.442 511.909 201.632 506.741 200.01 502.992C198.389 499.243 195.957 497.368 192.714 497.368C188.762 497.368 185.418 499.648 182.682 504.208C180.048 508.768 178.325 515.253 177.514 523.664C177.312 525.285 178.072 526.096 179.794 526.096Z" fill="black"/>
<path d="M145.523 573.368C140.659 573.368 136.302 571.747 132.451 568.504C128.6 565.261 125.51 560.701 123.179 554.824C120.95 548.845 119.835 541.955 119.835 534.152C119.835 526.147 121 519.104 123.331 513.024C125.662 506.944 128.854 502.181 132.907 498.736C136.96 495.291 141.47 493.568 146.435 493.568C152.414 493.568 157.227 496.051 160.875 501.016C164.624 505.88 166.499 513.835 166.499 524.88C166.499 528.224 165.232 529.896 162.699 529.896H133.819C131.792 529.896 130.779 531.061 130.779 533.392C130.779 544.133 132.35 552.189 135.491 557.56C138.632 562.931 142.635 565.616 147.499 565.616C151.35 565.616 154.491 564.248 156.923 561.512C159.355 558.776 161.331 554.165 162.851 547.68C163.155 546.565 163.814 546.008 164.827 546.008C166.043 546.008 166.499 547.021 166.195 549.048C164.574 558.067 161.99 564.4 158.443 568.048C154.896 571.595 150.59 573.368 145.523 573.368ZM133.363 526.096H148.715C153.579 526.096 156.011 523.563 156.011 518.496C156.011 511.909 155.2 506.741 153.579 502.992C151.958 499.243 149.526 497.368 146.283 497.368C142.331 497.368 138.987 499.648 136.251 504.208C133.616 508.768 131.894 515.253 131.083 523.664C130.88 525.285 131.64 526.096 133.363 526.096Z" fill="black"/>
<path d="M98.9564 504.208C103.111 497.115 108.127 493.568 114.004 493.568C117.348 493.568 119.831 494.581 121.452 496.608C123.074 498.533 123.884 500.712 123.884 503.144C123.884 505.069 123.378 506.64 122.364 507.856C121.452 509.072 119.983 509.68 117.956 509.68C116.335 509.68 115.119 509.325 114.308 508.616C113.599 507.805 112.991 506.893 112.484 505.88C112.079 504.867 111.572 504.005 110.964 503.296C110.356 502.485 109.343 502.08 107.924 502.08C106.1 502.08 104.378 503.195 102.756 505.424C101.135 507.552 99.7671 510.44 98.6524 514.088C97.6391 517.736 97.1324 521.891 97.1324 526.552V561.816C97.1324 563.944 97.4364 565.464 98.0444 566.376C98.7538 567.288 100.172 567.845 102.3 568.048L106.404 568.504C107.519 568.707 108.076 569.264 108.076 570.176C108.076 571.392 107.316 572 105.796 572H80.1084C78.5884 572 77.8284 571.443 77.8284 570.328C77.8284 569.416 78.4871 568.808 79.8044 568.504L81.6284 568.2C83.7564 567.795 85.1244 567.187 85.7324 566.376C86.4418 565.464 86.7964 563.944 86.7964 561.816V510.744C86.7964 508.92 86.4924 507.704 85.8844 507.096C85.3778 506.387 84.4151 505.931 82.9964 505.728L79.8044 505.272C78.4871 505.171 77.8284 504.613 77.8284 503.6C77.8284 502.789 78.6391 502.232 80.2604 501.928C83.4018 501.421 85.7831 500.611 87.4044 499.496C89.1271 498.381 90.9004 497.013 92.7244 495.392C93.6364 494.48 94.3964 494.024 95.0044 494.024C95.9164 494.024 96.3724 494.632 96.3724 495.848V504.056C96.3724 504.765 96.6764 505.221 97.2844 505.424C97.8924 505.525 98.4498 505.12 98.9564 504.208Z" fill="black"/>
<path d="M31.168 572C29.648 572 28.888 571.443 28.888 570.328C28.888 569.416 29.5467 568.808 30.864 568.504L34.36 567.896C36.488 567.491 37.856 566.933 38.464 566.224C39.1733 565.515 39.528 564.096 39.528 561.968V472.592C39.528 470.464 39.1733 469.045 38.464 468.336C37.856 467.627 36.488 467.069 34.36 466.664L30.864 466.056C29.5467 465.752 28.888 465.144 28.888 464.232C28.888 463.117 29.648 462.56 31.168 462.56H80.112C82.4427 462.56 83.7093 463.725 83.912 466.056L85.128 491.288C85.3307 493.011 84.672 493.872 83.152 493.872C81.936 493.872 81.2267 493.213 81.024 491.896L80.264 486.88C79.4533 481.611 78.0347 477.507 76.008 474.568C73.9813 471.629 71.7013 469.552 69.168 468.336C66.6347 467.019 64.2027 466.36 61.872 466.36C57.4133 466.36 54.3733 467.069 52.752 468.488C51.1307 469.907 50.32 472.085 50.32 475.024V510.896C50.32 512.315 51.0293 513.024 52.448 513.024H57.768C62.2267 513.024 64.9627 510.643 65.976 505.88L67.648 498.28C67.952 496.963 68.712 496.304 69.928 496.304C71.144 496.304 71.752 497.165 71.752 498.888V533.088C71.752 534.811 71.144 535.672 69.928 535.672C68.712 535.672 67.952 535.013 67.648 533.696L65.976 526.248C65.2667 522.701 64.2533 520.371 62.936 519.256C61.72 518.141 59.9467 517.584 57.616 517.584H52.448C51.0293 517.584 50.32 518.293 50.32 519.712V561.208C50.32 563.336 50.624 564.856 51.232 565.768C51.9413 566.579 53.36 567.136 55.488 567.44L62.632 568.504C63.7467 568.707 64.304 569.264 64.304 570.176C64.304 571.392 63.544 572 62.024 572H31.168Z" fill="black"/>
<path d="M366.713 421.368C363.166 421.368 360.227 420.152 357.897 417.72C355.667 415.187 354.553 411.083 354.553 405.408V348.56C354.553 347.344 353.945 346.736 352.729 346.736H348.321C346.699 346.736 345.889 346.128 345.889 344.912C345.889 344.101 346.345 343.392 347.257 342.784C350.601 340.453 353.286 337.971 355.313 335.336C357.339 332.6 359.113 328.901 360.633 324.24C361.342 322.112 362.203 321.048 363.217 321.048C364.331 321.048 364.889 321.859 364.889 323.48V340.352C364.889 341.771 365.598 342.48 367.017 342.48H376.897C378.518 342.48 379.329 343.189 379.329 344.608C379.329 346.027 378.518 346.736 376.897 346.736H367.017C365.598 346.736 364.889 347.445 364.889 348.864V405.56C364.889 407.789 365.243 409.563 365.953 410.88C366.662 412.096 367.979 412.704 369.905 412.704C372.033 412.704 373.755 411.64 375.073 409.512C376.491 407.384 377.403 403.939 377.809 399.176C378.011 397.757 378.67 397.048 379.785 397.048C381.001 397.048 381.609 397.808 381.609 399.328C381.305 407.131 379.683 412.755 376.745 416.2C373.907 419.645 370.563 421.368 366.713 421.368Z" fill="black"/>
<path d="M285.13 420C283.61 420 282.85 419.443 282.85 418.328C282.85 417.416 283.509 416.808 284.826 416.504L286.65 416.2C288.778 415.795 290.146 415.187 290.754 414.376C291.464 413.464 291.818 411.944 291.818 409.816V358.744C291.818 356.92 291.514 355.704 290.906 355.096C290.4 354.387 289.437 353.931 288.018 353.728L284.826 353.272C283.509 353.171 282.85 352.613 282.85 351.6C282.85 350.789 283.661 350.232 285.282 349.928C288.424 349.421 290.805 348.611 292.426 347.496C294.149 346.381 295.922 345.013 297.746 343.392C298.658 342.48 299.418 342.024 300.026 342.024C300.938 342.024 301.394 342.632 301.394 343.848V350.688C301.394 351.6 301.698 352.208 302.306 352.512C303.016 352.715 303.776 352.411 304.586 351.6C308.64 347.749 312.186 345.115 315.226 343.696C318.368 342.277 321.661 341.568 325.106 341.568C329.666 341.568 333.314 343.189 336.05 346.432C338.786 349.573 340.154 354.235 340.154 360.416V409.816C340.154 411.944 340.458 413.464 341.066 414.376C341.776 415.187 343.194 415.744 345.322 416.048L348.666 416.504C349.781 416.707 350.338 417.315 350.338 418.328C350.338 419.443 349.73 420 348.514 420H322.978C321.56 420 320.85 419.443 320.85 418.328C320.85 417.315 321.408 416.707 322.522 416.504L324.65 416.2C326.778 415.896 328.146 415.288 328.754 414.376C329.464 413.464 329.818 411.944 329.818 409.816V362.088C329.818 357.123 328.906 353.627 327.082 351.6C325.258 349.573 322.674 348.56 319.33 348.56C316.088 348.56 313.149 349.523 310.514 351.448C307.981 353.272 305.954 355.755 304.434 358.896C302.914 361.936 302.154 365.331 302.154 369.08V409.816C302.154 411.944 302.458 413.464 303.066 414.376C303.776 415.288 305.194 415.845 307.322 416.048L311.426 416.504C312.541 416.707 313.098 417.264 313.098 418.176C313.098 419.392 312.338 420 310.818 420H285.13Z" fill="black"/>
<path d="M263.323 421.368C258.459 421.368 254.102 419.747 250.251 416.504C246.4 413.261 243.31 408.701 240.979 402.824C238.75 396.845 237.635 389.955 237.635 382.152C237.635 374.147 238.8 367.104 241.131 361.024C243.462 354.944 246.654 350.181 250.707 346.736C254.76 343.291 259.27 341.568 264.235 341.568C270.214 341.568 275.027 344.051 278.675 349.016C282.424 353.88 284.299 361.835 284.299 372.88C284.299 376.224 283.032 377.896 280.499 377.896H251.619C249.592 377.896 248.579 379.061 248.579 381.392C248.579 392.133 250.15 400.189 253.291 405.56C256.432 410.931 260.435 413.616 265.299 413.616C269.15 413.616 272.291 412.248 274.723 409.512C277.155 406.776 279.131 402.165 280.651 395.68C280.955 394.565 281.614 394.008 282.627 394.008C283.843 394.008 284.299 395.021 283.995 397.048C282.374 406.067 279.79 412.4 276.243 416.048C272.696 419.595 268.39 421.368 263.323 421.368ZM251.163 374.096H266.515C271.379 374.096 273.811 371.563 273.811 366.496C273.811 359.909 273 354.741 271.379 350.992C269.758 347.243 267.326 345.368 264.083 345.368C260.131 345.368 256.787 347.648 254.051 352.208C251.416 356.768 249.694 363.253 248.883 371.664C248.68 373.285 249.44 374.096 251.163 374.096Z" fill="black"/>
<path d="M199.782 421.368C195.324 421.368 191.321 419.848 187.774 416.808C184.329 413.667 181.644 409.36 179.718 403.888C177.793 398.315 176.83 391.88 176.83 384.584C176.83 376.072 178.148 368.624 180.782 362.24C183.417 355.755 187.065 350.688 191.726 347.04C196.388 343.392 201.657 341.568 207.534 341.568C208.953 341.568 210.372 341.72 211.79 342.024C213.209 342.227 214.577 342.632 215.894 343.24C217.516 344.051 218.326 343.696 218.326 342.176V322.72C218.326 320.896 218.022 319.629 217.414 318.92C216.908 318.211 215.945 317.805 214.526 317.704L210.574 317.248C209.46 317.045 208.902 316.437 208.902 315.424C208.902 314.411 209.46 313.803 210.574 313.6C213.817 312.992 216.401 312.283 218.326 311.472C220.353 310.661 222.025 309.851 223.342 309.04C224.964 308.027 226.18 307.52 226.99 307.52C228.105 307.52 228.662 308.331 228.662 309.952V405.56C228.662 409.816 229.726 411.944 231.854 411.944C233.172 411.944 234.388 411.083 235.502 409.36C236.617 407.536 237.174 404.496 237.174 400.24C237.174 398.619 237.833 397.808 239.15 397.808C240.366 397.808 240.974 398.669 240.974 400.392C240.974 407.789 239.708 413.16 237.174 416.504C234.641 419.747 231.753 421.368 228.51 421.368C225.572 421.368 223.342 420.405 221.822 418.48C220.302 416.453 219.289 414.072 218.782 411.336C218.681 410.525 218.326 410.12 217.718 410.12C217.11 410.019 216.553 410.373 216.046 411.184C213.209 415.136 210.625 417.821 208.294 419.24C205.964 420.659 203.126 421.368 199.782 421.368ZM203.126 414.376C205.761 414.376 208.193 413.515 210.422 411.792C212.753 409.968 214.628 407.536 216.046 404.496C217.566 401.456 218.326 398.061 218.326 394.312V360.112C218.326 355.552 217.262 351.955 215.134 349.32C213.108 346.685 210.422 345.368 207.078 345.368C201.404 345.368 196.793 348.712 193.246 355.4C189.801 361.987 188.078 371.005 188.078 382.456C188.078 392.893 189.396 400.848 192.03 406.32C194.766 411.691 198.465 414.376 203.126 414.376Z" fill="black"/>
<path d="M136.839 421.368C134.306 421.368 131.874 420.811 129.543 419.696C127.212 418.581 125.287 416.808 123.767 414.376C122.247 411.944 121.487 408.701 121.487 404.648V351.752C121.487 349.928 121.183 348.661 120.575 347.952C120.068 347.243 119.106 346.837 117.687 346.736L115.103 346.432C113.38 346.229 112.519 345.571 112.519 344.456C112.519 343.139 113.482 342.48 115.407 342.48H129.543C131.063 342.48 131.823 343.24 131.823 344.76V401.456C131.823 406.117 132.684 409.461 134.407 411.488C136.231 413.413 138.714 414.376 141.855 414.376C144.996 414.376 147.783 413.515 150.215 411.792C152.647 409.968 154.572 407.587 155.991 404.648C157.511 401.608 158.271 398.315 158.271 394.768V351.752C158.271 349.928 157.967 348.661 157.359 347.952C156.852 347.243 155.89 346.837 154.471 346.736L151.887 346.432C150.164 346.229 149.303 345.571 149.303 344.456C149.303 343.139 150.266 342.48 152.191 342.48H166.327C167.847 342.48 168.607 343.24 168.607 344.76V403.736C168.607 405.56 168.86 406.827 169.367 407.536C169.975 408.144 170.988 408.549 172.407 408.752L175.599 409.208C176.916 409.309 177.575 409.816 177.575 410.728C177.575 411.64 176.764 412.248 175.143 412.552C172.002 412.957 169.468 413.768 167.543 414.984C165.719 416.2 164.098 417.669 162.679 419.392C161.767 420.304 161.007 420.76 160.399 420.76C159.487 420.76 159.031 420.152 159.031 418.936V411.944C159.031 411.133 158.727 410.677 158.119 410.576C157.612 410.373 157.055 410.576 156.447 411.184C152.698 414.933 149.354 417.568 146.415 419.088C143.578 420.608 140.386 421.368 136.839 421.368Z" fill="black"/>
<path d="M102.642 421.368C99.0958 421.368 96.1571 420.152 93.8264 417.72C91.5971 415.187 90.4824 411.083 90.4824 405.408V348.56C90.4824 347.344 89.8744 346.736 88.6584 346.736H84.2504C82.6291 346.736 81.8184 346.128 81.8184 344.912C81.8184 344.101 82.2744 343.392 83.1864 342.784C86.5304 340.453 89.2158 337.971 91.2424 335.336C93.2691 332.6 95.0424 328.901 96.5624 324.24C97.2718 322.112 98.1331 321.048 99.1464 321.048C100.261 321.048 100.818 321.859 100.818 323.48V340.352C100.818 341.771 101.528 342.48 102.946 342.48H112.826C114.448 342.48 115.258 343.189 115.258 344.608C115.258 346.027 114.448 346.736 112.826 346.736H102.946C101.528 346.736 100.818 347.445 100.818 348.864V405.56C100.818 407.789 101.173 409.563 101.882 410.88C102.592 412.096 103.909 412.704 105.834 412.704C107.962 412.704 109.685 411.64 111.002 409.512C112.421 407.384 113.333 403.939 113.738 399.176C113.941 397.757 114.6 397.048 115.714 397.048C116.93 397.048 117.538 397.808 117.538 399.328C117.234 407.131 115.613 412.755 112.674 416.2C109.837 419.645 106.493 421.368 102.642 421.368Z" fill="black"/>
<path d="M53.968 421.368C51.9413 421.368 49.6613 421.165 47.128 420.76C44.696 420.355 42.3653 419.848 40.136 419.24C38.008 418.632 36.336 417.973 35.12 417.264C34.4107 416.859 33.8533 416.453 33.448 416.048C33.144 415.541 32.992 414.731 32.992 413.616L32.232 389.752C32.232 387.725 32.8907 386.712 34.208 386.712C35.3227 386.712 36.0827 387.624 36.488 389.448L37.856 395.224C41.3013 409.715 47.736 416.96 57.16 416.96C62.2267 416.96 66.2293 415.288 69.168 411.944C72.208 408.499 73.728 403.685 73.728 397.504C73.728 391.525 72.1573 385.952 69.016 380.784C65.976 375.616 61.0613 370.499 54.272 365.432C46.7733 360.061 41.3013 354.893 37.856 349.928C34.4107 344.861 32.688 339.491 32.688 333.816C32.688 326.317 35.272 320.339 40.44 315.88C45.7093 311.32 52.3973 309.04 60.504 309.04C63.544 309.04 66.4827 309.395 69.32 310.104C72.1573 310.813 74.488 311.827 76.312 313.144C76.92 313.549 77.376 314.005 77.68 314.512C78.0853 315.019 78.288 315.677 78.288 316.488L78.744 339.44C78.744 341.163 78.0853 342.024 76.768 342.024C75.856 342.024 75.1973 341.315 74.792 339.896L73.728 336.096C71.4987 328.293 69.168 322.619 66.736 319.072C64.4053 315.424 61.0107 313.6 56.552 313.6C52.1947 313.6 48.6987 315.019 46.064 317.856C43.5307 320.693 42.264 324.696 42.264 329.864C42.264 334.221 43.6827 338.376 46.52 342.328C49.3573 346.28 54.3227 351.093 61.416 356.768C69.016 362.949 74.5387 368.928 77.984 374.704C81.5307 380.379 83.304 386.459 83.304 392.944C83.304 398.619 82.0373 403.584 79.504 407.84C76.9707 412.096 73.4747 415.44 69.016 417.872C64.6587 420.203 59.6427 421.368 53.968 421.368Z" fill="black"/>
<path d="M398.028 200.208C402.183 193.115 407.199 189.568 413.076 189.568C416.42 189.568 418.903 190.581 420.524 192.608C422.146 194.533 422.956 196.712 422.956 199.144C422.956 201.069 422.45 202.64 421.436 203.856C420.524 205.072 419.055 205.68 417.028 205.68C415.407 205.68 414.191 205.325 413.38 204.616C412.671 203.805 412.063 202.893 411.556 201.88C411.151 200.867 410.644 200.005 410.036 199.296C409.428 198.485 408.415 198.08 406.996 198.08C405.172 198.08 403.45 199.195 401.828 201.424C400.207 203.552 398.839 206.44 397.724 210.088C396.711 213.736 396.204 217.891 396.204 222.552V257.816C396.204 259.944 396.508 261.464 397.116 262.376C397.826 263.288 399.244 263.845 401.372 264.048L405.476 264.504C406.591 264.707 407.148 265.264 407.148 266.176C407.148 267.392 406.388 268 404.868 268H379.18C377.66 268 376.9 267.443 376.9 266.328C376.9 265.416 377.559 264.808 378.876 264.504L380.7 264.2C382.828 263.795 384.196 263.187 384.804 262.376C385.514 261.464 385.868 259.944 385.868 257.816V206.744C385.868 204.92 385.564 203.704 384.956 203.096C384.45 202.387 383.487 201.931 382.068 201.728L378.876 201.272C377.559 201.171 376.9 200.613 376.9 199.6C376.9 198.789 377.711 198.232 379.332 197.928C382.474 197.421 384.855 196.611 386.476 195.496C388.199 194.381 389.972 193.013 391.796 191.392C392.708 190.48 393.468 190.024 394.076 190.024C394.988 190.024 395.444 190.632 395.444 191.848V200.056C395.444 200.765 395.748 201.221 396.356 201.424C396.964 201.525 397.522 201.12 398.028 200.208Z" fill="black"/>
<path d="M357.373 269.368C352.509 269.368 348.152 267.747 344.301 264.504C340.45 261.261 337.36 256.701 335.029 250.824C332.8 244.845 331.685 237.955 331.685 230.152C331.685 222.147 332.85 215.104 335.181 209.024C337.512 202.944 340.704 198.181 344.757 194.736C348.81 191.291 353.32 189.568 358.285 189.568C364.264 189.568 369.077 192.051 372.725 197.016C376.474 201.88 378.349 209.835 378.349 220.88C378.349 224.224 377.082 225.896 374.549 225.896H345.669C343.642 225.896 342.629 227.061 342.629 229.392C342.629 240.133 344.2 248.189 347.341 253.56C350.482 258.931 354.485 261.616 359.349 261.616C363.2 261.616 366.341 260.248 368.773 257.512C371.205 254.776 373.181 250.165 374.701 243.68C375.005 242.565 375.664 242.008 376.677 242.008C377.893 242.008 378.349 243.021 378.045 245.048C376.424 254.067 373.84 260.4 370.293 264.048C366.746 267.595 362.44 269.368 357.373 269.368ZM345.213 222.096H360.565C365.429 222.096 367.861 219.563 367.861 214.496C367.861 207.909 367.05 202.741 365.429 198.992C363.808 195.243 361.376 193.368 358.133 193.368C354.181 193.368 350.837 195.648 348.101 200.208C345.466 204.768 343.744 211.253 342.933 219.664C342.73 221.285 343.49 222.096 345.213 222.096Z" fill="black"/>
<path d="M268.951 268C267.431 268 266.671 267.443 266.671 266.328C266.671 265.416 267.329 264.808 268.647 264.504L270.471 264.2C272.599 263.795 273.967 263.187 274.575 262.376C275.284 261.464 275.639 259.944 275.639 257.816V206.744C275.639 204.92 275.335 203.704 274.727 203.096C274.22 202.387 273.257 201.931 271.839 201.728L268.647 201.272C267.329 201.171 266.671 200.613 266.671 199.6C266.671 198.789 267.481 198.232 269.103 197.928C272.244 197.421 274.625 196.611 276.247 195.496C277.969 194.381 279.743 193.013 281.567 191.392C282.479 190.48 283.239 190.024 283.847 190.024C284.759 190.024 285.215 190.632 285.215 191.848V198.688C285.215 199.6 285.519 200.208 286.127 200.512C286.836 200.715 287.596 200.411 288.407 199.6C292.46 195.749 296.007 193.115 299.047 191.696C302.188 190.277 305.481 189.568 308.927 189.568C313.487 189.568 317.135 191.189 319.871 194.432C322.607 197.573 323.975 202.235 323.975 208.416V257.816C323.975 259.944 324.279 261.464 324.887 262.376C325.596 263.187 327.015 263.744 329.143 264.048L332.487 264.504C333.601 264.707 334.159 265.315 334.159 266.328C334.159 267.443 333.551 268 332.335 268H306.799C305.38 268 304.671 267.443 304.671 266.328C304.671 265.315 305.228 264.707 306.343 264.504L308.471 264.2C310.599 263.896 311.967 263.288 312.575 262.376C313.284 261.464 313.639 259.944 313.639 257.816V210.088C313.639 205.123 312.727 201.627 310.903 199.6C309.079 197.573 306.495 196.56 303.151 196.56C299.908 196.56 296.969 197.523 294.335 199.448C291.801 201.272 289.775 203.755 288.255 206.896C286.735 209.936 285.975 213.331 285.975 217.08V257.816C285.975 259.944 286.279 261.464 286.887 262.376C287.596 263.288 289.015 263.845 291.143 264.048L295.247 264.504C296.361 264.707 296.919 265.264 296.919 266.176C296.919 267.392 296.159 268 294.639 268H268.951Z" fill="black"/>
<path d="M237.89 300.68C230.189 300.68 224.109 299.109 219.65 295.968C215.192 292.928 212.962 289.229 212.962 284.872C212.962 283.048 213.216 281.376 213.722 279.856C214.229 278.437 215.293 276.765 216.914 274.84C218.637 272.915 221.221 270.432 224.666 267.392C225.882 266.277 226.49 265.264 226.49 264.352C226.49 263.339 225.882 262.579 224.666 262.072C221.018 260.552 218.84 258.627 218.13 256.296C217.421 253.864 218.282 251.635 220.714 249.608L231.658 240.184C232.874 239.171 232.824 238.309 231.506 237.6C227.352 235.573 224.058 232.432 221.626 228.176C219.194 223.92 217.978 219.36 217.978 214.496C217.978 209.835 218.992 205.629 221.018 201.88C223.045 198.131 225.781 195.141 229.226 192.912C232.672 190.683 236.522 189.568 240.778 189.568C243.21 189.568 245.541 189.973 247.77 190.784C249.189 191.291 250.05 190.835 250.354 189.416C251.266 185.565 252.938 182.576 255.37 180.448C257.904 178.219 260.386 177.104 262.818 177.104C265.149 177.104 267.024 177.813 268.442 179.232C269.962 180.549 270.722 182.221 270.722 184.248C270.722 185.971 270.216 187.339 269.202 188.352C268.189 189.365 266.922 189.872 265.402 189.872C264.085 189.872 263.122 189.619 262.514 189.112C261.906 188.605 261.349 188.099 260.842 187.592C260.336 187.085 259.525 186.832 258.41 186.832C255.978 186.832 254.458 188.149 253.85 190.784C253.546 191.797 253.546 192.659 253.85 193.368C254.256 194.077 254.813 194.787 255.522 195.496C257.954 197.827 259.829 200.664 261.146 204.008C262.565 207.352 263.274 211.051 263.274 215.104C263.274 219.968 262.261 224.325 260.234 228.176C258.309 232.027 255.624 235.067 252.178 237.296C248.834 239.525 245.034 240.64 240.778 240.64C238.954 240.64 237.384 241.045 236.066 241.856C234.749 242.565 233.432 243.629 232.114 245.048L229.53 247.936C228.213 249.557 227.808 251.128 228.314 252.648C228.922 254.067 230.341 254.776 232.57 254.776H245.642C252.938 254.776 258.714 256.6 262.97 260.248C267.226 263.795 269.354 268.709 269.354 274.992C269.354 279.957 267.936 284.365 265.098 288.216C262.261 292.067 258.461 295.107 253.698 297.336C249.037 299.565 243.768 300.68 237.89 300.68ZM240.626 236.84C244.274 236.84 247.162 234.864 249.29 230.912C251.418 226.96 252.482 221.589 252.482 214.8C252.482 208.213 251.368 202.944 249.138 198.992C247.01 194.939 244.173 192.912 240.626 192.912C237.08 192.912 234.192 194.939 231.962 198.992C229.834 202.944 228.77 208.213 228.77 214.8C228.77 221.589 229.834 226.96 231.962 230.912C234.09 234.864 236.978 236.84 240.626 236.84ZM239.714 297.336C243.362 297.336 246.706 296.525 249.746 294.904C252.786 293.283 255.168 291.003 256.89 288.064C258.714 285.227 259.626 281.984 259.626 278.336C259.626 273.776 258.258 270.28 255.522 267.848C252.888 265.315 249.138 264.048 244.274 264.048H240.778C237.637 264.048 235.256 264.352 233.634 264.96C232.114 265.568 230.645 266.632 229.226 268.152C226.085 271.496 224.109 274.181 223.298 276.208C222.488 278.235 222.082 280.312 222.082 282.44C222.082 286.899 223.602 290.496 226.642 293.232C229.784 295.968 234.141 297.336 239.714 297.336Z" fill="black"/>
<path d="M201.919 176.04C199.791 176.04 197.967 175.28 196.447 173.76C195.028 172.24 194.319 170.315 194.319 167.984C194.319 165.653 195.028 163.779 196.447 162.36C197.967 160.84 199.791 160.08 201.919 160.08C204.047 160.08 205.82 160.84 207.239 162.36C208.657 163.779 209.367 165.653 209.367 167.984C209.367 170.315 208.657 172.24 207.239 173.76C205.82 175.28 204.047 176.04 201.919 176.04ZM189.151 268C187.631 268 186.871 267.443 186.871 266.328C186.871 265.416 187.529 264.808 188.847 264.504L190.671 264.2C193.204 263.795 194.825 263.187 195.535 262.376C196.244 261.464 196.599 259.944 196.599 257.816V206.744C196.599 204.92 196.295 203.704 195.687 203.096C195.18 202.387 194.217 201.931 192.799 201.728L189.607 201.272C188.289 201.171 187.631 200.613 187.631 199.6C187.631 198.789 188.441 198.232 190.063 197.928C193.204 197.421 195.737 196.611 197.663 195.496C199.588 194.381 201.463 193.013 203.287 191.392C204.199 190.48 204.959 190.024 205.567 190.024C206.479 190.024 206.935 190.632 206.935 191.848V257.816C206.935 259.944 207.239 261.464 207.847 262.376C208.455 263.288 209.62 263.845 211.343 264.048L215.143 264.504C216.257 264.707 216.815 265.264 216.815 266.176C216.815 267.392 216.055 268 214.535 268H189.151Z" fill="black"/>
<path d="M165.345 269.368C163.014 269.368 160.532 269.064 157.897 268.456C155.262 267.949 153.134 267.291 151.513 266.48C150.601 265.973 150.145 265.112 150.145 263.896L149.689 246.872C149.689 245.149 150.348 244.288 151.665 244.288C152.78 244.288 153.54 245.099 153.945 246.72C155.668 253.915 157.745 258.829 160.177 261.464C162.71 264.099 165.75 265.416 169.297 265.416C172.236 265.416 174.668 264.301 176.593 262.072C178.518 259.741 179.481 256.549 179.481 252.496C179.481 248.443 178.366 244.845 176.137 241.704C173.908 238.563 170.158 235.117 164.889 231.368C159.62 227.821 155.769 224.275 153.337 220.728C150.905 217.08 149.689 213.128 149.689 208.872C149.689 203.096 151.716 198.435 155.769 194.888C159.822 191.341 165.193 189.568 171.881 189.568C173.908 189.568 175.884 189.821 177.809 190.328C179.734 190.733 181.457 191.443 182.977 192.456C183.889 193.064 184.345 193.875 184.345 194.888L184.649 211.608C184.649 213.128 184.041 213.888 182.825 213.888C182.116 213.888 181.609 213.685 181.305 213.28C181.001 212.773 180.748 212.165 180.545 211.456C178.518 204.869 176.492 200.309 174.465 197.776C172.438 195.141 169.956 193.824 167.017 193.824C164.382 193.824 162.204 194.736 160.481 196.56C158.758 198.384 157.897 200.664 157.897 203.4C157.897 206.947 158.961 210.037 161.089 212.672C163.217 215.307 167.068 218.549 172.641 222.4C177.708 226.048 181.508 230 184.041 234.256C186.676 238.411 187.993 242.971 187.993 247.936C187.993 254.421 185.916 259.64 181.761 263.592C177.606 267.443 172.134 269.368 165.345 269.368Z" fill="black"/>
<path d="M128.186 269.368C123.322 269.368 118.964 267.747 115.114 264.504C111.263 261.261 108.172 256.701 105.842 250.824C103.612 244.845 102.498 237.955 102.498 230.152C102.498 222.147 103.663 215.104 105.994 209.024C108.324 202.944 111.516 198.181 115.57 194.736C119.623 191.291 124.132 189.568 129.098 189.568C135.076 189.568 139.89 192.051 143.538 197.016C147.287 201.88 149.162 209.835 149.162 220.88C149.162 224.224 147.895 225.896 145.362 225.896H116.482C114.455 225.896 113.442 227.061 113.442 229.392C113.442 240.133 115.012 248.189 118.154 253.56C121.295 258.931 125.298 261.616 130.162 261.616C134.012 261.616 137.154 260.248 139.586 257.512C142.018 254.776 143.994 250.165 145.514 243.68C145.818 242.565 146.476 242.008 147.49 242.008C148.706 242.008 149.162 243.021 148.858 245.048C147.236 254.067 144.652 260.4 141.106 264.048C137.559 267.595 133.252 269.368 128.186 269.368ZM116.026 222.096H131.378C136.242 222.096 138.674 219.563 138.674 214.496C138.674 207.909 137.863 202.741 136.242 198.992C134.62 195.243 132.188 193.368 128.946 193.368C124.994 193.368 121.65 195.648 118.914 200.208C116.279 204.768 114.556 211.253 113.746 219.664C113.543 221.285 114.303 222.096 116.026 222.096Z" fill="black"/>
<path d="M31.168 268C29.648 268 28.888 267.443 28.888 266.328C28.888 265.416 29.5467 264.808 30.864 264.504L34.36 263.896C37.8053 263.288 39.528 261.312 39.528 257.968V168.592C39.528 166.464 39.1733 165.045 38.464 164.336C37.856 163.627 36.488 163.069 34.36 162.664L30.864 162.056C29.5467 161.752 28.888 161.144 28.888 160.232C28.888 159.117 29.648 158.56 31.168 158.56H61.872C69.776 158.56 76.616 160.891 82.392 165.552C88.168 170.112 92.6267 176.547 95.768 184.856C98.9093 193.165 100.48 202.792 100.48 213.736C100.48 224.781 98.808 234.357 95.464 242.464C92.2213 250.571 87.6107 256.853 81.632 261.312C75.6533 265.771 68.56 268 60.352 268H31.168ZM60.96 264.048C69.9787 264.048 76.8187 259.741 81.48 251.128C86.2427 242.515 88.624 230.051 88.624 213.736C88.624 197.523 86.344 184.957 81.784 176.04C77.3253 167.021 70.688 162.512 61.872 162.512C54.1707 162.512 50.32 166.211 50.32 173.608V252.952C50.32 257.005 51.1307 259.893 52.752 261.616C54.4747 263.237 57.2107 264.048 60.96 264.048Z" fill="black"/>
<path d="M452.178 48.2081C456.333 41.1148 461.349 37.5681 467.226 37.5681C470.57 37.5681 473.053 38.5815 474.674 40.6081C476.296 42.5335 477.106 44.7121 477.106 47.1441C477.106 49.0695 476.6 50.6401 475.586 51.8561C474.674 53.0721 473.205 53.6801 471.178 53.6801C469.557 53.6801 468.341 53.3255 467.53 52.6161C466.821 51.8055 466.213 50.8935 465.706 49.8801C465.301 48.8668 464.794 48.0055 464.186 47.2961C463.578 46.4855 462.565 46.0801 461.146 46.0801C459.322 46.0801 457.6 47.1948 455.978 49.4241C454.357 51.5521 452.989 54.4401 451.874 58.0881C450.861 61.7361 450.354 65.8908 450.354 70.5521V105.816C450.354 107.944 450.658 109.464 451.266 110.376C451.976 111.288 453.394 111.845 455.522 112.048L459.626 112.504C460.741 112.707 461.298 113.264 461.298 114.176C461.298 115.392 460.538 116 459.018 116H433.33C431.81 116 431.05 115.443 431.05 114.328C431.05 113.416 431.709 112.808 433.026 112.504L434.85 112.2C436.978 111.795 438.346 111.187 438.954 110.376C439.664 109.464 440.018 107.944 440.018 105.816V54.7441C440.018 52.9201 439.714 51.7041 439.106 51.0961C438.6 50.3868 437.637 49.9308 436.218 49.7281L433.026 49.2721C431.709 49.1708 431.05 48.6135 431.05 47.6001C431.05 46.7895 431.861 46.2321 433.482 45.9281C436.624 45.4215 439.005 44.6108 440.626 43.4961C442.349 42.3814 444.122 41.0135 445.946 39.3921C446.858 38.4801 447.618 38.0241 448.226 38.0241C449.138 38.0241 449.594 38.6321 449.594 39.8481V48.0561C449.594 48.7655 449.898 49.2215 450.506 49.4241C451.114 49.5255 451.672 49.1201 452.178 48.2081Z" fill="black"/>
<path d="M411.523 117.368C406.659 117.368 402.302 115.747 398.451 112.504C394.6 109.261 391.51 104.701 389.179 98.8241C386.95 92.8455 385.835 85.9548 385.835 78.1521C385.835 70.1468 387 63.1041 389.331 57.0241C391.662 50.9441 394.854 46.1815 398.907 42.7361C402.96 39.2908 407.47 37.5681 412.435 37.5681C418.414 37.5681 423.227 40.0508 426.875 45.0161C430.624 49.8801 432.499 57.8348 432.499 68.8801C432.499 72.2241 431.232 73.8961 428.699 73.8961H399.819C397.792 73.8961 396.779 75.0615 396.779 77.3921C396.779 88.1335 398.35 96.1895 401.491 101.56C404.632 106.931 408.635 109.616 413.499 109.616C417.35 109.616 420.491 108.248 422.923 105.512C425.355 102.776 427.331 98.1655 428.851 91.6801C429.155 90.5655 429.814 90.0081 430.827 90.0081C432.043 90.0081 432.499 91.0215 432.195 93.0481C430.574 102.067 427.99 108.4 424.443 112.048C420.896 115.595 416.59 117.368 411.523 117.368ZM399.363 70.0961H414.715C419.579 70.0961 422.011 67.5628 422.011 62.4961C422.011 55.9095 421.2 50.7415 419.579 46.9921C417.958 43.2428 415.526 41.3681 412.283 41.3681C408.331 41.3681 404.987 43.6481 402.251 48.2081C399.616 52.7681 397.894 59.2534 397.083 67.6641C396.88 69.2854 397.64 70.0961 399.363 70.0961Z" fill="black"/>
<path d="M326.504 147.16C324.984 147.16 324.224 146.603 324.224 145.488C324.224 144.373 324.883 143.765 326.2 143.664L328.328 143.36C330.456 143.056 331.824 142.448 332.432 141.536C333.141 140.624 333.496 139.104 333.496 136.976V54.7441C333.496 52.9201 333.192 51.7041 332.584 51.0961C332.077 50.3868 331.115 49.9308 329.696 49.7281L326.504 49.2721C325.187 49.1708 324.528 48.6135 324.528 47.6001C324.528 46.7895 325.339 46.2321 326.96 45.9281C330.101 45.4215 332.483 44.6108 334.104 43.4961C335.827 42.3814 337.6 41.0135 339.424 39.3921C340.336 38.4801 341.096 38.0241 341.704 38.0241C342.616 38.0241 343.072 38.6321 343.072 39.8481V44.5601C343.072 45.2695 343.376 45.7761 343.984 46.0801C344.592 46.2828 345.301 45.9788 346.112 45.1681L347.784 43.4961C349.811 41.4695 351.888 40.0001 354.016 39.0881C356.144 38.0748 358.576 37.5681 361.312 37.5681C365.973 37.5681 370.077 39.1388 373.624 42.2801C377.272 45.3201 380.109 49.5761 382.136 55.0481C384.264 60.5201 385.328 66.9548 385.328 74.3521C385.328 82.7628 384.011 90.2108 381.376 96.6961C378.741 103.181 375.093 108.248 370.432 111.896C365.872 115.544 360.603 117.368 354.624 117.368C351.584 117.368 348.899 116.811 346.568 115.696C344.744 114.885 343.832 115.443 343.832 117.368V136.976C343.832 139.104 344.136 140.523 344.744 141.232C345.453 142.043 346.872 142.6 349 142.904L354.624 143.664C355.739 143.867 356.296 144.424 356.296 145.336C356.296 146.552 355.536 147.16 354.016 147.16H326.504ZM355.08 113.568C360.755 113.568 365.315 110.224 368.76 103.536C372.307 96.8481 374.08 87.8295 374.08 76.4801C374.08 66.0428 372.56 58.0881 369.52 52.6161C366.48 47.1441 362.173 44.4081 356.6 44.4081C353.155 44.4081 350.165 45.8268 347.632 48.6641C345.099 51.5015 343.832 55.4535 343.832 60.5201V98.8241C343.832 103.384 344.845 106.981 346.872 109.616C349 112.251 351.736 113.568 355.08 113.568Z" fill="black"/>
<path d="M298.809 117.368C293.641 117.368 288.98 115.645 284.825 112.2C280.772 108.653 277.529 103.84 275.097 97.7601C272.665 91.6801 271.449 84.8908 271.449 77.3921C271.449 69.8935 272.665 63.1548 275.097 57.1761C277.529 51.1975 280.822 46.4348 284.977 42.8881C289.132 39.3414 293.742 37.5681 298.809 37.5681C303.977 37.5681 308.588 39.3414 312.641 42.8881C316.796 46.4348 320.089 51.1975 322.521 57.1761C324.953 63.1548 326.169 69.8935 326.169 77.3921C326.169 84.8908 324.953 91.6801 322.521 97.7601C320.19 103.84 316.948 108.653 312.793 112.2C308.638 115.645 303.977 117.368 298.809 117.368ZM298.809 113.568C309.348 113.568 314.617 101.509 314.617 77.3921C314.617 53.3761 309.348 41.3681 298.809 41.3681C288.27 41.3681 283.001 53.3761 283.001 77.3921C283.001 101.509 288.27 113.568 298.809 113.568Z" fill="black"/>
<path d="M245.195 116C243.979 116 243.371 115.443 243.371 114.328C243.371 113.315 243.928 112.707 245.043 112.504L247.171 112.2C249.299 111.896 250.869 111.288 251.883 110.376C252.896 109.464 253.403 107.944 253.403 105.816V18.72C253.403 16.896 253.099 15.6293 252.491 14.92C251.984 14.2107 251.021 13.8053 249.603 13.704L246.107 13.248C244.992 13.0453 244.435 12.4373 244.435 11.424C244.435 10.4107 244.992 9.80268 246.107 9.60001C248.944 8.99202 251.376 8.28268 253.403 7.47201C255.429 6.66135 257.101 5.85068 258.419 5.04002C260.04 4.02669 261.256 3.52002 262.067 3.52002C263.181 3.52002 263.739 4.33068 263.739 5.95201V105.816C263.739 107.944 264.043 109.464 264.651 110.376C265.36 111.187 266.779 111.744 268.907 112.048L272.403 112.504C273.517 112.707 274.075 113.315 274.075 114.328C274.075 115.443 273.467 116 272.251 116H245.195Z" fill="black"/>
<path d="M224.907 117.368C220.043 117.368 215.686 115.747 211.835 112.504C207.985 109.261 204.894 104.701 202.563 98.8241C200.334 92.8455 199.219 85.9548 199.219 78.1521C199.219 70.1468 200.385 63.1041 202.715 57.0241C205.046 50.9441 208.238 46.1815 212.291 42.7361C216.345 39.2908 220.854 37.5681 225.819 37.5681C231.798 37.5681 236.611 40.0508 240.259 45.0161C244.009 49.8801 245.883 57.8348 245.883 68.8801C245.883 72.2241 244.617 73.8961 242.083 73.8961H213.203C211.177 73.8961 210.163 75.0615 210.163 77.3921C210.163 88.1335 211.734 96.1895 214.875 101.56C218.017 106.931 222.019 109.616 226.883 109.616C230.734 109.616 233.875 108.248 236.307 105.512C238.739 102.776 240.715 98.1655 242.235 91.6801C242.539 90.5655 243.198 90.0081 244.211 90.0081C245.427 90.0081 245.883 91.0215 245.579 93.0481C243.958 102.067 241.374 108.4 237.827 112.048C234.281 115.595 229.974 117.368 224.907 117.368ZM212.747 70.0961H228.099C232.963 70.0961 235.395 67.5628 235.395 62.4961C235.395 55.9095 234.585 50.7415 232.963 46.9921C231.342 43.2428 228.91 41.3681 225.667 41.3681C221.715 41.3681 218.371 43.6481 215.635 48.2081C213.001 52.7681 211.278 59.2534 210.467 67.6641C210.265 69.2854 211.025 70.0961 212.747 70.0961Z" fill="black"/>
<path d="M174.921 117.368C174.009 117.368 173.35 116.811 172.945 115.696L152.729 48.664C152.019 46.232 151.31 44.6613 150.601 43.952C149.993 43.2427 148.979 42.736 147.561 42.432L145.281 41.976C143.963 41.672 143.305 41.0133 143.305 40C143.305 38.9867 144.014 38.48 145.433 38.48H170.513C171.931 38.48 172.641 38.9867 172.641 40C172.641 41.1147 171.982 41.7733 170.665 41.976L168.233 42.28C165.801 42.584 164.281 43.192 163.673 44.104C163.065 44.9147 163.065 46.4347 163.673 48.664L176.289 92.592C176.593 93.7067 177.099 94.264 177.809 94.264C178.518 94.264 179.025 93.7067 179.329 92.592L191.641 51.4C192.451 48.664 192.654 46.6373 192.249 45.32C191.945 43.9013 190.526 42.9893 187.993 42.584L184.801 41.976C183.483 41.672 182.825 41.0133 182.825 40C182.825 38.9867 183.534 38.48 184.953 38.48H204.257C205.675 38.48 206.385 39.0373 206.385 40.152C206.385 41.1653 205.777 41.8747 204.561 42.28L203.193 42.736C201.673 43.2427 200.355 44.1547 199.241 45.472C198.227 46.7893 197.214 49.0693 196.201 52.312L176.897 115.696C176.491 116.811 175.833 117.368 174.921 117.368Z" fill="black"/>
<path d="M128.186 117.368C123.322 117.368 118.964 115.747 115.114 112.504C111.263 109.261 108.172 104.701 105.842 98.8241C103.612 92.8455 102.498 85.9548 102.498 78.1521C102.498 70.1468 103.663 63.1041 105.994 57.0241C108.324 50.9441 111.516 46.1815 115.57 42.7361C119.623 39.2908 124.132 37.5681 129.098 37.5681C135.076 37.5681 139.89 40.0508 143.538 45.0161C147.287 49.8801 149.162 57.8348 149.162 68.8801C149.162 72.2241 147.895 73.8961 145.362 73.8961H116.482C114.455 73.8961 113.442 75.0615 113.442 77.3921C113.442 88.1335 115.012 96.1895 118.154 101.56C121.295 106.931 125.298 109.616 130.162 109.616C134.012 109.616 137.154 108.248 139.586 105.512C142.018 102.776 143.994 98.1655 145.514 91.6801C145.818 90.5655 146.476 90.0081 147.49 90.0081C148.706 90.0081 149.162 91.0215 148.858 93.0481C147.236 102.067 144.652 108.4 141.106 112.048C137.559 115.595 133.252 117.368 128.186 117.368ZM116.026 70.0961H131.378C136.242 70.0961 138.674 67.5628 138.674 62.4961C138.674 55.9095 137.863 50.7415 136.242 46.9921C134.62 43.2428 132.188 41.3681 128.946 41.3681C124.994 41.3681 121.65 43.6481 118.914 48.2081C116.279 52.7681 114.556 59.2534 113.746 67.6641C113.543 69.2854 114.303 70.0961 116.026 70.0961Z" fill="black"/>
<path d="M31.168 116C29.648 116 28.888 115.443 28.888 114.328C28.888 113.416 29.5467 112.808 30.864 112.504L34.36 111.896C37.8053 111.288 39.528 109.312 39.528 105.968V16.5921C39.528 14.4641 39.1733 13.0454 38.464 12.3361C37.856 11.6267 36.488 11.0694 34.36 10.6641L30.864 10.0561C29.5467 9.75206 28.888 9.14406 28.888 8.23206C28.888 7.11739 29.648 6.56006 31.168 6.56006H61.872C69.776 6.56006 76.616 8.89073 82.392 13.5521C88.168 18.1121 92.6267 24.5467 95.768 32.8561C98.9093 41.1654 100.48 50.7921 100.48 61.7361C100.48 72.7814 98.808 82.3574 95.464 90.4641C92.2213 98.5707 87.6107 104.853 81.632 109.312C75.6533 113.771 68.56 116 60.352 116H31.168ZM60.96 112.048C69.9787 112.048 76.8187 107.741 81.48 99.1281C86.2427 90.5147 88.624 78.0507 88.624 61.7361C88.624 45.5227 86.344 32.9574 81.784 24.0401C77.3253 15.0214 70.688 10.5121 61.872 10.5121C54.1707 10.5121 50.32 14.2107 50.32 21.6081V100.952C50.32 105.005 51.1307 107.893 52.752 109.616C54.4747 111.237 57.2107 112.048 60.96 112.048Z" fill="black"/>
<path d="M57.792 133.544C51.712 133.544 46.2907 130.403 41.528 124.12C35.0427 126.045 29.1147 127.008 23.744 127.008C17.8667 127.008 13.256 125.893 9.91202 123.664C6.56802 121.536 4.89602 118.851 4.89602 115.608C4.89602 113.075 5.96002 110.339 8.08802 107.4C10.216 104.461 13.5094 101.573 17.968 98.7361C19.792 97.6214 21.768 96.5068 23.896 95.3921C26.1254 94.2774 28.5067 93.2641 31.04 92.3521C30.736 89.1094 30.584 85.6641 30.584 82.0161C30.584 73.7068 31.496 64.5868 33.32 54.6561C35.144 44.6241 38.184 33.8321 42.44 22.2801C34.9414 26.0294 28.0507 30.4881 21.768 35.6561C15.4854 40.7228 10.6214 45.9414 7.17602 51.3121C6.06136 53.1361 4.69336 54.0481 3.07202 54.0481C1.95736 54.0481 1.40002 53.4908 1.40002 52.3761C1.40002 51.5654 1.85602 50.3494 2.76802 48.7281C3.57869 47.1068 5.04802 45.0801 7.17602 42.6481C11.2294 37.9868 16.4987 33.4774 22.984 29.1201C29.4694 24.7628 36.5627 21.0134 44.264 17.8721C45.9867 13.1094 47.9627 8.44811 50.192 3.88811C50.8 2.57078 51.712 1.91211 52.928 1.91211C53.7387 1.91211 54.3974 2.21611 54.904 2.82411C55.512 3.33077 55.816 3.98944 55.816 4.80011C55.816 5.20544 55.7147 5.71211 55.512 6.32011C54.904 7.73877 54.296 9.15744 53.688 10.5761C53.1814 11.9948 52.6747 13.4134 52.168 14.8321C53.5867 14.3254 55.056 13.8694 56.576 13.4641C58.096 13.0588 59.5654 12.6534 60.984 12.2481C68.888 10.4241 75.9307 9.51211 82.112 9.51211C90.2187 9.51211 96.9067 10.8801 102.176 13.6161C107.445 16.3521 111.347 20.1014 113.88 24.8641C116.413 29.5254 117.68 34.8454 117.68 40.8241C117.68 47.0054 116.363 53.5414 113.728 60.4321C111.195 67.3228 107.445 74.2641 102.48 81.2561C97.5147 88.1468 91.3334 94.6828 83.936 100.864C76.64 107.045 68.28 112.517 58.856 117.28C53.8907 119.712 49.1787 121.688 44.72 123.208C47.152 125.741 49.6347 127.515 52.168 128.528C54.7014 129.541 56.7787 130.048 58.4 130.048C59.8187 130.048 60.832 129.744 61.44 129.136C62.352 128.123 63.3147 127.616 64.328 127.616C65.0374 127.616 65.6454 127.819 66.152 128.224C66.6587 128.629 66.912 129.085 66.912 129.592C66.912 130.403 66.2534 131.163 64.936 131.872C63.72 132.48 62.504 132.885 61.288 133.088C60.072 133.392 58.9067 133.544 57.792 133.544ZM43.2 121.384C45.5307 120.573 47.9627 119.56 50.496 118.344C53.1307 117.229 55.816 115.861 58.552 114.24C70.0027 107.653 79.4774 100.256 86.976 92.0481C94.576 83.7388 100.251 75.3281 104 66.8161C107.851 58.3041 109.776 50.4001 109.776 43.1041C109.776 34.3894 107.141 27.2454 101.872 21.6721C96.6027 15.9974 88.6987 13.1601 78.16 13.1601C73.0934 13.1601 67.368 13.9201 60.984 15.4401C59.2614 15.8454 57.5387 16.3521 55.816 16.9601C54.0934 17.4668 52.3707 18.0748 50.648 18.7841C44.4667 34.9974 40.2107 49.0321 37.88 60.8881C35.5494 72.6428 34.4347 82.6748 34.536 90.9841C39.5014 89.2614 44.8214 87.8934 50.496 86.8801C56.272 85.8668 62.2507 85.3601 68.432 85.3601C69.5467 85.3601 70.6614 85.4108 71.776 85.5121C72.992 85.5121 74.208 85.5628 75.424 85.6641C76.7414 85.7654 77.4 86.0694 77.4 86.5761C77.4 87.3868 75.88 87.7921 72.84 87.7921C71.5227 87.7921 70.1547 87.7414 68.736 87.6401C67.4187 87.5388 66.1014 87.4881 64.784 87.4881C59.1094 87.4881 53.688 88.0454 48.52 89.1601C43.352 90.2748 38.6907 91.6934 34.536 93.4161C34.84 100.205 35.8027 105.88 37.424 110.44C39.0454 114.899 40.9707 118.547 43.2 121.384ZM28 124.12C31.5467 124.12 35.6 123.512 40.16 122.296C38.032 119.053 36.1574 115.152 34.536 110.592C33.016 105.931 31.9014 100.661 31.192 94.7841C26.328 97.2161 22.376 99.8001 19.336 102.536C17.0054 104.563 15.2827 106.589 14.168 108.616C13.0534 110.643 12.496 112.517 12.496 114.24C12.496 117.077 13.864 119.408 16.6 121.232C19.336 123.157 23.136 124.12 28 124.12Z" fill="white"/>
<path fill-rule="evenodd" clip-rule="evenodd" d="M17.4388 97.8876L17.4466 97.8828C19.2915 96.7554 21.2869 95.6299 23.432 94.5063L23.4404 94.5019L23.4488 94.4977C25.5012 93.4715 27.677 92.5314 29.9755 91.6768C29.7143 88.626 29.584 85.4056 29.584 82.0161C29.584 73.6352 30.5037 64.454 32.3363 54.4763C34.0453 45.0773 36.812 35.0293 40.6312 24.3339C34.0669 27.8001 27.9915 31.8317 22.4033 36.4284L22.3958 36.4346C16.1792 41.448 11.3974 46.5864 8.0234 51.8432C6.79314 53.8516 5.14777 55.0481 3.07202 55.0481C2.36055 55.0481 1.64326 54.8696 1.11092 54.3372C0.578571 53.8049 0.400024 53.0876 0.400024 52.3761C0.400024 51.285 0.977985 49.874 1.88464 48.2589C2.75386 46.5286 4.28441 44.4343 6.42252 41.9907C10.5463 37.2486 15.8869 32.6837 22.4263 28.2901C28.856 23.9701 35.8732 20.2455 43.4753 17.1146C45.173 12.4665 47.1109 7.91444 49.2889 3.45864C49.6441 2.69259 50.1193 2.04843 50.7465 1.59543C51.387 1.13291 52.1278 0.912109 52.928 0.912109C53.9967 0.912109 54.9179 1.31813 55.6133 2.11483C56.41 2.81024 56.816 3.73145 56.816 4.80011C56.816 5.3567 56.68 5.97843 56.4607 6.63634L56.4476 6.6758L54.6194 10.9416L53.8026 13.2285C54.626 12.9691 55.4646 12.7255 56.3184 12.4979C57.833 12.094 59.2967 11.6902 60.7093 11.2866L60.7341 11.2795L60.7592 11.2737C68.7154 9.43765 75.8358 8.51211 82.112 8.51211C90.3234 8.51211 97.1828 9.8967 102.637 12.7286C108.065 15.5473 112.122 19.4327 114.761 24.39C117.382 29.2149 118.68 34.7016 118.68 40.8241C118.68 47.1468 117.333 53.8023 114.664 60.7833C112.096 67.7676 108.302 74.7848 103.295 81.8351L103.291 81.8407C98.2717 88.8068 92.0317 95.4021 84.5798 101.629C77.2188 107.865 68.7928 113.379 59.3071 118.173L59.2959 118.178C54.8569 120.352 50.6118 122.168 46.5611 123.623C48.5506 125.487 50.5447 126.802 52.5394 127.6C55.0242 128.594 56.9639 129.048 58.4 129.048C59.6972 129.048 60.382 128.768 60.7176 128.444C61.7461 127.31 62.952 126.616 64.328 126.616C65.2419 126.616 66.0759 126.883 66.7767 127.443C67.4482 127.98 67.912 128.7 67.912 129.592C67.912 131.002 66.7772 132.016 65.4101 132.753L65.3968 132.76L65.3832 132.767C64.1 133.408 62.8023 133.845 61.4919 134.068C60.2199 134.383 58.9858 134.544 57.792 134.544C51.4958 134.544 45.9484 131.366 41.1538 125.272C34.8535 127.09 29.0479 128.008 23.744 128.008C17.7607 128.008 12.9332 126.877 9.36622 124.502C5.81338 122.238 3.89602 119.269 3.89602 115.608C3.89602 112.791 5.07799 109.852 7.27808 106.814C9.50568 103.737 12.9104 100.769 17.4311 97.8924L17.4388 97.8876ZM9.91202 123.664C13.256 125.893 17.8667 127.008 23.744 127.008C29.1147 127.008 35.0427 126.045 41.528 124.12C46.2907 130.403 51.712 133.544 57.792 133.544C58.9067 133.544 60.072 133.392 61.288 133.088C62.504 132.885 63.72 132.48 64.936 131.872C66.2534 131.163 66.912 130.403 66.912 129.592C66.912 129.085 66.6587 128.629 66.152 128.224C65.6454 127.819 65.0374 127.616 64.328 127.616C63.3147 127.616 62.352 128.123 61.44 129.136C60.832 129.744 59.8187 130.048 58.4 130.048C56.7787 130.048 54.7014 129.541 52.168 128.528C49.9061 127.623 47.6846 126.113 45.5035 123.996C45.2418 123.742 44.9806 123.48 44.72 123.208C45.0662 123.09 45.4139 122.969 45.7631 122.846C49.9119 121.379 54.2762 119.523 58.856 117.28C68.28 112.517 76.64 107.045 83.936 100.864C91.3334 94.6828 97.5147 88.1468 102.48 81.2561C107.445 74.2641 111.195 67.3228 113.728 60.4321C116.363 53.5414 117.68 47.0054 117.68 40.8241C117.68 34.8454 116.413 29.5254 113.88 24.8641C111.347 20.1014 107.445 16.3521 102.176 13.6161C96.9067 10.8801 90.2187 9.51211 82.112 9.51211C75.9307 9.51211 68.888 10.4241 60.984 12.2481C59.5654 12.6534 58.096 13.0588 56.576 13.4641C55.484 13.7553 54.4182 14.0727 53.3784 14.4162C52.971 14.5508 52.5675 14.6894 52.168 14.8321L53.688 10.5761L55.512 6.32011C55.7147 5.71211 55.816 5.20544 55.816 4.80011C55.816 3.98944 55.512 3.33077 54.904 2.82411C54.3974 2.21611 53.7387 1.91211 52.928 1.91211C51.712 1.91211 50.8 2.57078 50.192 3.88811C47.9627 8.44811 45.9867 13.1094 44.264 17.8721C36.5627 21.0134 29.4694 24.7628 22.984 29.1201C16.4987 33.4774 11.2294 37.9868 7.17602 42.6481C5.04803 45.0801 3.57869 47.1068 2.76802 48.7281C1.85602 50.3494 1.40002 51.5654 1.40002 52.3761C1.40002 53.4908 1.95736 54.0481 3.07202 54.0481C4.69336 54.0481 6.06136 53.1361 7.17602 51.3121C10.6214 45.9414 15.4854 40.7228 21.768 35.6561C27.6836 30.7901 34.1383 26.5529 41.1319 22.9445C41.5659 22.7206 42.0019 22.4992 42.44 22.2801C42.2708 22.7395 42.1035 23.1976 41.9381 23.6546C37.9442 34.6892 35.0715 45.023 33.32 54.6561C31.496 64.5868 30.584 73.7068 30.584 82.0161C30.584 85.6641 30.736 89.1094 31.04 92.3521C28.5067 93.2641 26.1254 94.2775 23.896 95.3921C21.768 96.5068 19.792 97.6214 17.968 98.7361C13.5094 101.573 10.216 104.461 8.08802 107.4C5.96002 110.339 4.89602 113.075 4.89602 115.608C4.89602 118.851 6.56802 121.536 9.91202 123.664ZM50.496 86.8801C56.272 85.8668 62.2507 85.3601 68.432 85.3601C69.5467 85.3601 70.6614 85.4108 71.776 85.5121C72.992 85.5121 74.208 85.5628 75.424 85.6641C76.7414 85.7654 77.4 86.0695 77.4 86.5761C77.4 87.3868 75.88 87.7921 72.84 87.7921C71.5227 87.7921 70.1547 87.7414 68.736 87.6401C67.4187 87.5388 66.1014 87.4881 64.784 87.4881C59.1094 87.4881 53.688 88.0454 48.52 89.1601C43.352 90.2748 38.6907 91.6934 34.536 93.4161C34.84 100.205 35.8027 105.88 37.424 110.44C39.0454 114.899 40.9707 118.547 43.2 121.384C45.5307 120.573 47.9627 119.56 50.496 118.344C53.1307 117.229 55.816 115.861 58.552 114.24C70.0027 107.653 79.4774 100.256 86.976 92.0481C94.576 83.7388 100.251 75.3281 104 66.8161C107.851 58.3041 109.776 50.4001 109.776 43.1041C109.776 34.3894 107.141 27.2454 101.872 21.6721C96.6027 15.9974 88.6987 13.1601 78.16 13.1601C73.0934 13.1601 67.368 13.9201 60.984 15.4401C59.2614 15.8454 57.5387 16.3521 55.816 16.9601C54.0934 17.4668 52.3707 18.0748 50.648 18.7841C44.4667 34.9974 40.2107 49.0321 37.88 60.8881C35.6472 72.1493 34.5304 81.8294 34.5297 89.9285C34.5297 90.2834 34.5318 90.6353 34.536 90.9841C34.8666 90.8694 35.1988 90.7563 35.5326 90.6447C40.2114 89.0808 45.1992 87.826 50.496 86.8801ZM35.5304 89.5917C40.1677 88.0597 45.0981 86.8282 50.3202 85.8957L50.3232 85.8951C56.1593 84.8713 62.1959 84.3601 68.432 84.3601C69.562 84.3601 70.6918 84.4108 71.8214 84.5121C73.0494 84.5134 74.2772 84.5651 75.5049 84.6674M35.5304 89.5917C35.5615 81.6473 36.6669 72.148 38.8609 61.0826L38.8612 61.081C41.158 49.3976 45.3426 35.5553 51.4279 19.5463C52.9862 18.9191 54.543 18.3769 56.0982 17.9195L56.1237 17.912L56.1488 17.9031C57.8386 17.3067 59.5266 16.8103 61.2131 16.4135L61.2156 16.4129C67.5448 14.906 73.1903 14.1601 78.16 14.1601C88.5248 14.1601 96.1199 16.9471 101.139 22.3526L101.145 22.3591C106.215 27.7212 108.776 34.6074 108.776 43.1041C108.776 50.224 106.897 57.9865 103.089 66.4039L103.085 66.413C99.3876 74.8069 93.7796 83.1279 86.2381 91.3732C78.8206 99.4924 69.4311 106.829 58.0534 113.373L58.0422 113.38C55.3407 114.981 52.6954 116.328 50.1064 117.423L50.0846 117.432L50.0633 117.443C47.8063 118.526 45.6361 119.444 43.5524 120.198C41.5858 117.549 39.8522 114.191 38.3651 110.102C36.8433 105.821 35.9037 100.486 35.5691 94.0745M33.5894 110.915L33.5853 110.902C32.1656 106.548 31.0987 101.687 30.3798 96.3225C26.1504 98.5345 22.6978 100.856 20.005 103.279L19.9986 103.285L19.9922 103.291C17.7224 105.264 16.0867 107.203 15.0442 109.098C13.9841 111.026 13.496 112.734 13.496 114.24C13.496 116.686 14.6456 118.727 17.1547 120.4L17.1652 120.407L17.1755 120.414C19.6824 122.178 23.2527 123.12 28 123.12C31.096 123.12 34.6203 122.641 38.5802 121.669C36.7065 118.595 35.0462 115.012 33.5938 110.927L33.5894 110.915ZM39.5956 121.411C39.7817 121.711 39.9699 122.006 40.16 122.296C39.8168 122.388 39.4765 122.476 39.139 122.56C34.9928 123.6 31.2798 124.12 28 124.12C23.136 124.12 19.336 123.157 16.6 121.232C13.864 119.408 12.496 117.077 12.496 114.24C12.496 112.517 13.0534 110.643 14.168 108.616C15.2827 106.589 17.0054 104.563 19.336 102.536C22.176 99.9802 25.8118 97.5569 30.2436 95.2662C30.5558 95.1049 30.8719 94.9442 31.192 94.7841C31.2346 95.1372 31.2787 95.4882 31.3243 95.8369C32.0368 101.292 33.1074 106.211 34.536 110.592C36.0125 114.745 37.699 118.351 39.5956 121.411Z" fill="black"/>
<path d="M241.392 286.848C239.872 286.848 238.251 286.696 236.528 286.392C229.637 284.974 223.963 281.731 219.504 276.664C215.147 271.598 211.904 265.416 209.776 258.12C207.749 250.723 206.736 242.92 206.736 234.712C206.736 227.822 207.749 220.931 209.776 214.04C211.904 207.15 214.792 200.664 218.44 194.584C222.088 188.504 226.293 183.134 231.056 178.472C235.92 173.71 241.088 170.011 246.56 167.376C252.133 164.64 257.808 163.272 263.584 163.272C268.549 163.272 272.552 164.286 275.592 166.312C278.632 168.238 280.861 170.822 282.28 174.064C283.699 177.206 284.408 180.651 284.408 184.4C284.408 188.048 283.749 191.747 282.432 195.496C281.216 199.144 279.443 202.539 277.112 205.68C274.781 208.822 271.995 211.355 268.752 213.28C265.509 215.104 261.912 216.016 257.96 216.016C256.035 216.016 253.907 215.712 251.576 215.104C250.765 214.8 250.36 214.496 250.36 214.192C250.36 213.686 250.968 213.432 252.184 213.432C252.792 213.432 253.248 213.483 253.552 213.584C254.667 213.888 255.731 214.04 256.744 214.04C259.581 214.04 262.317 213.128 264.952 211.304C267.688 209.48 270.12 207.099 272.248 204.16C274.376 201.222 276.048 198.03 277.264 194.584C278.48 191.038 279.088 187.592 279.088 184.248C279.088 179.992 277.923 176.243 275.592 173C273.261 169.758 269.36 167.782 263.888 167.072C263.381 166.971 262.824 166.92 262.216 166.92C261.608 166.819 261.051 166.768 260.544 166.768C255.68 166.768 250.917 168.086 246.256 170.72C241.696 173.254 237.44 176.8 233.488 181.36C229.637 185.819 226.243 190.987 223.304 196.864C220.365 202.742 218.035 208.974 216.312 215.56C214.691 222.046 213.88 228.582 213.88 235.168C213.88 243.072 214.691 250.571 216.312 257.664C217.933 264.656 220.517 270.534 224.064 275.296C227.712 280.059 232.475 282.998 238.352 284.112C238.859 284.214 239.365 284.264 239.872 284.264C240.379 284.366 240.835 284.416 241.24 284.416C246.307 284.416 250.056 282.035 252.488 277.272C255.021 272.51 256.288 266.683 256.288 259.792C256.288 256.246 255.984 252.598 255.376 248.848C251.931 249.254 248.485 249.963 245.04 250.976C241.696 251.99 238.352 253.206 235.008 254.624C234.805 254.726 234.552 254.776 234.248 254.776C233.741 254.776 233.336 254.523 233.032 254.016C232.829 253.51 232.728 252.902 232.728 252.192C232.728 251.483 232.88 250.824 233.184 250.216C233.488 249.507 233.995 249.051 234.704 248.848C238.352 247.43 242 246.416 245.648 245.808C249.296 245.2 252.995 244.896 256.744 244.896C260.797 244.896 264.901 245.251 269.056 245.96C273.312 246.67 277.619 247.734 281.976 249.152C283.699 249.659 284.56 250.267 284.56 250.976C284.56 251.179 284.256 251.28 283.648 251.28C283.141 251.28 282.128 251.128 280.608 250.824C277.771 249.912 274.883 249.254 271.944 248.848C269.107 248.443 266.269 248.24 263.432 248.24C262.419 248.24 261.405 248.291 260.392 248.392C259.379 248.392 258.365 248.443 257.352 248.544C259.48 254.118 260.544 259.387 260.544 264.352C260.544 271.04 258.771 276.462 255.224 280.616C251.677 284.771 247.067 286.848 241.392 286.848Z" fill="white"/>
<path fill-rule="evenodd" clip-rule="evenodd" d="M236.34 287.375L236.326 287.372C229.233 285.911 223.362 282.562 218.753 277.325L218.746 277.316C214.283 272.127 210.978 265.814 208.816 258.4L208.814 258.392L208.812 258.384C206.76 250.895 205.736 243.003 205.736 234.712C205.736 227.722 206.764 220.736 208.817 213.758L208.82 213.745L208.821 213.745C210.972 206.779 213.892 200.22 217.583 194.07C221.272 187.921 225.529 182.482 230.356 177.758C235.288 172.929 240.543 169.164 246.123 166.477C251.822 163.68 257.645 162.272 263.584 162.272C268.673 162.272 272.885 163.309 276.137 165.474C279.336 167.502 281.695 170.236 283.194 173.658C284.674 176.938 285.408 180.524 285.408 184.4C285.408 188.168 284.728 191.976 283.378 195.82C282.128 199.567 280.306 203.053 277.915 206.276C275.508 209.52 272.624 212.144 269.263 214.14L269.252 214.146L269.242 214.152C265.841 216.065 262.073 217.016 257.96 217.016C255.931 217.016 253.717 216.696 251.324 216.072L251.273 216.059L251.225 216.041C250.784 215.875 250.378 215.684 250.064 215.448C249.776 215.232 249.36 214.821 249.36 214.192C249.36 213.849 249.469 213.515 249.693 213.235C249.905 212.971 250.177 212.805 250.431 212.699C250.921 212.495 251.537 212.432 252.184 212.432C252.807 212.432 253.383 212.48 253.838 212.626C254.87 212.905 255.838 213.04 256.744 213.04C259.352 213.04 261.893 212.206 264.383 210.482L264.39 210.477L264.397 210.472C267.025 208.721 269.373 206.426 271.438 203.574C273.508 200.715 275.135 197.61 276.319 194.256C277.503 190.803 278.088 187.468 278.088 184.248C278.088 180.187 276.98 176.645 274.78 173.584C272.665 170.641 269.065 168.752 263.759 168.064L263.726 168.06L263.692 168.053C263.26 167.966 262.769 167.92 262.216 167.92H262.133L262.052 167.907C261.487 167.812 260.985 167.768 260.544 167.768C255.869 167.768 251.275 169.032 246.748 171.591L246.742 171.594C242.298 174.063 238.131 177.53 234.244 182.015C230.454 186.404 227.104 191.501 224.198 197.311C221.293 203.123 218.986 209.288 217.281 215.808C215.68 222.214 214.88 228.666 214.88 235.168C214.88 243.003 215.683 250.426 217.287 257.44C218.882 264.322 221.415 270.063 224.862 274.694C228.361 279.258 232.906 282.061 238.538 283.13L238.548 283.132C238.992 283.22 239.433 283.264 239.872 283.264H239.971L240.068 283.284C240.527 283.375 240.916 283.416 241.24 283.416C243.611 283.416 245.623 282.861 247.316 281.786C249.012 280.709 250.446 279.072 251.597 276.817L251.601 276.81L251.605 276.803C254.043 272.219 255.288 266.563 255.288 259.792C255.288 256.603 255.038 253.327 254.537 249.962C251.469 250.374 248.399 251.031 245.326 251.934C242.027 252.934 238.726 254.134 235.423 255.535C235.051 255.713 234.645 255.776 234.248 255.776C233.326 255.776 232.624 255.279 232.175 254.531L232.133 254.462L232.104 254.388C231.842 253.733 231.728 252.992 231.728 252.192C231.728 251.344 231.909 250.54 232.277 249.795C232.688 248.854 233.402 248.195 234.382 247.901C238.077 246.467 241.777 245.44 245.484 244.822C249.187 244.205 252.94 243.896 256.744 243.896C260.855 243.896 265.015 244.256 269.223 244.974C273.526 245.692 277.876 246.766 282.272 248.197C283.17 248.462 283.932 248.777 284.491 249.171C285.051 249.567 285.56 250.16 285.56 250.976C285.56 251.742 284.931 252.059 284.648 252.153C284.34 252.256 283.981 252.28 283.648 252.28C283.025 252.28 281.914 252.105 280.412 251.805L280.356 251.794L280.302 251.776C277.52 250.882 274.688 250.236 271.807 249.839L271.803 249.838C269.012 249.439 266.222 249.24 263.432 249.24C262.452 249.24 261.472 249.289 260.492 249.387L260.442 249.392H260.392C259.844 249.392 259.296 249.408 258.748 249.438C260.605 254.647 261.544 259.62 261.544 264.352C261.544 271.223 259.718 276.892 255.985 281.265C252.24 285.652 247.346 287.848 241.392 287.848C239.806 287.848 238.126 287.69 236.354 287.377L236.34 287.375ZM257.713 249.514C257.596 249.192 257.476 248.869 257.352 248.544C257.698 248.51 258.043 248.481 258.389 248.458C259.057 248.414 259.724 248.392 260.392 248.392C261.405 248.291 262.419 248.24 263.432 248.24C266.269 248.24 269.107 248.443 271.944 248.848C274.883 249.254 277.771 249.912 280.608 250.824C282.128 251.128 283.141 251.28 283.648 251.28C284.256 251.28 284.56 251.179 284.56 250.976C284.56 250.267 283.699 249.659 281.976 249.152C277.619 247.734 273.312 246.67 269.056 245.96C264.901 245.251 260.797 244.896 256.744 244.896C252.995 244.896 249.296 245.2 245.648 245.808C242 246.416 238.352 247.43 234.704 248.848C233.995 249.051 233.488 249.507 233.184 250.216C232.88 250.824 232.728 251.483 232.728 252.192C232.728 252.902 232.829 253.51 233.032 254.016C233.336 254.523 233.741 254.776 234.248 254.776C234.552 254.776 234.805 254.726 235.008 254.624C238.352 253.206 241.696 251.99 245.04 250.976C248.485 249.963 251.931 249.254 255.376 248.848C255.984 252.598 256.288 256.246 256.288 259.792C256.288 266.683 255.021 272.51 252.488 277.272C250.056 282.035 246.307 284.416 241.24 284.416C240.835 284.416 240.379 284.366 239.872 284.264C239.365 284.264 238.859 284.214 238.352 284.112C232.475 282.998 227.712 280.059 224.064 275.296C220.517 270.534 217.933 264.656 216.312 257.664C214.691 250.571 213.88 243.072 213.88 235.168C213.88 228.582 214.691 222.046 216.312 215.56C218.035 208.974 220.365 202.742 223.304 196.864C226.243 190.987 229.637 185.819 233.488 181.36C237.44 176.8 241.696 173.254 246.256 170.72C250.917 168.086 255.68 166.768 260.544 166.768C261.051 166.768 261.608 166.819 262.216 166.92C262.824 166.92 263.381 166.971 263.888 167.072C269.36 167.782 273.261 169.758 275.592 173C277.923 176.243 279.088 179.992 279.088 184.248C279.088 187.592 278.48 191.038 277.264 194.584C276.048 198.03 274.376 201.222 272.248 204.16C270.12 207.099 267.688 209.48 264.952 211.304C262.317 213.128 259.581 214.04 256.744 214.04C255.731 214.04 254.667 213.888 253.552 213.584C253.248 213.483 252.792 213.432 252.184 213.432C250.968 213.432 250.36 213.686 250.36 214.192C250.36 214.496 250.765 214.8 251.576 215.104C253.907 215.712 256.035 216.016 257.96 216.016C261.912 216.016 265.509 215.104 268.752 213.28C271.995 211.355 274.781 208.822 277.112 205.68C279.443 202.539 281.216 199.144 282.432 195.496C283.749 191.747 284.408 188.048 284.408 184.4C284.408 180.651 283.699 177.206 282.28 174.064C280.861 170.822 278.632 168.238 275.592 166.312C272.552 164.286 268.549 163.272 263.584 163.272C257.808 163.272 252.133 164.64 246.56 167.376C241.088 170.011 235.92 173.71 231.056 178.472C226.293 183.134 222.088 188.504 218.44 194.584C214.792 200.664 211.904 207.15 209.776 214.04C207.749 220.931 206.736 227.822 206.736 234.712C206.736 242.92 207.749 250.723 209.776 258.12C211.904 265.416 215.147 271.598 219.504 276.664C223.963 281.731 229.637 284.974 236.528 286.392C238.251 286.696 239.872 286.848 241.392 286.848C247.067 286.848 251.677 284.771 255.224 280.616C258.771 276.462 260.544 271.04 260.544 264.352C260.544 259.676 259.6 254.73 257.713 249.514Z" fill="black"/>
<path d="M335.328 453.736C331.883 453.736 328.691 452.52 325.752 450.088C322.813 447.656 320.787 444.565 319.672 440.816C319.267 439.397 318.963 437.877 318.76 436.256C318.659 434.736 318.608 433.115 318.608 431.392C318.608 425.92 319.317 419.688 320.736 412.696C322.256 405.704 324.181 398.307 326.512 390.504C328.944 382.6 331.579 374.696 334.416 366.792C337.355 358.787 340.192 351.085 342.928 343.688C345.765 336.189 348.349 329.299 350.68 323.016C353.011 316.632 354.835 311.261 356.152 306.904C356.861 304.675 357.216 302.851 357.216 301.432C357.216 299.608 356.608 298.696 355.392 298.696C353.872 298.696 351.541 300.165 348.4 303.104C345.259 306.043 341.661 310.045 337.608 315.112C333.555 320.179 329.349 326.056 324.992 332.744C320.635 339.432 316.48 346.525 312.528 354.024C308.576 361.523 305.131 369.123 302.192 376.824C299.253 384.525 297.125 391.973 295.808 399.168C295.707 399.877 295.605 400.992 295.504 402.512C295.403 404.032 295.149 405.4 294.744 406.616C294.44 407.832 293.781 408.44 292.768 408.44C290.539 408.339 288.968 407.224 288.056 405.096C287.245 402.968 286.688 400.992 286.384 399.168C285.573 393.797 285.168 387.515 285.168 380.32C285.168 374.544 285.421 368.565 285.928 362.384C286.435 356.203 287.144 350.325 288.056 344.752C288.968 339.179 290.032 334.467 291.248 330.616C292.059 328.184 293.173 326.005 294.592 324.08C296.112 322.053 297.48 321.04 298.696 321.04C299.405 321.04 299.963 321.547 300.368 322.56C300.875 323.573 301.077 325.397 300.976 328.032C300.976 329.147 300.469 331.275 299.456 334.416C298.544 337.456 297.429 341.408 296.112 346.272C294.896 351.136 293.832 356.76 292.92 363.144C292.008 369.528 291.552 376.571 291.552 384.272C291.552 387.92 291.704 391.72 292.008 395.672C292.92 392.835 294.288 388.883 296.112 383.816C298.037 378.749 300.368 373.024 303.104 366.64C305.941 360.256 309.083 353.669 312.528 346.88C316.075 339.989 319.875 333.301 323.928 326.816C327.981 320.331 332.237 314.453 336.696 309.184C341.155 303.915 345.715 299.709 350.376 296.568C352.707 295.048 355.139 294.288 357.672 294.288C360.408 294.288 362.739 295.149 364.664 296.872C366.691 298.595 367.603 301.027 367.4 304.168C367.197 308.424 366.133 312.731 364.208 317.088C362.384 321.344 360.205 325.499 357.672 329.552C355.24 333.605 352.96 337.507 350.832 341.256C347.893 346.627 344.904 352.605 341.864 359.192C338.925 365.779 336.189 372.669 333.656 379.864C331.224 387.059 329.248 394.304 327.728 401.6C326.208 408.896 325.448 415.939 325.448 422.728C325.448 428.403 326.157 433.925 327.576 439.296C328.691 443.248 330.059 445.984 331.68 447.504C333.403 449.024 335.075 449.784 336.696 449.784C338.52 449.784 340.192 449.277 341.712 448.264C343.333 447.251 344.6 446.136 345.512 444.92C346.525 443.805 346.981 443.147 346.88 442.944C347.083 442.843 347.285 442.792 347.488 442.792C348.197 442.792 348.349 443.248 347.944 444.16C347.64 445.173 347.184 446.187 346.576 447.2C345.968 448.315 345.512 449.024 345.208 449.328C343.688 450.848 342.067 451.963 340.344 452.672C338.723 453.381 337.051 453.736 335.328 453.736Z" fill="white"/>
<path fill-rule="evenodd" clip-rule="evenodd" d="M318.713 441.101L318.71 441.091C318.29 439.618 317.976 438.047 317.768 436.38L317.764 436.351L317.762 436.323C317.659 434.778 317.608 433.134 317.608 431.392C317.608 425.837 318.328 419.536 319.756 412.497L319.759 412.484L319.759 412.484C321.285 405.464 323.217 398.042 325.554 390.218L325.556 390.21C327.993 382.291 330.632 374.372 333.475 366.454L333.477 366.447C336.416 358.441 339.254 350.739 341.99 343.341L341.993 343.334C344.829 335.838 347.412 328.951 349.741 322.671C352.068 316.298 353.885 310.947 355.195 306.615L355.197 306.608L355.199 306.601C355.895 304.415 356.216 302.703 356.216 301.432C356.216 300.6 356.072 300.15 355.928 299.935C355.832 299.791 355.709 299.696 355.392 299.696C354.92 299.696 354.155 299.94 353.037 300.644C351.947 301.332 350.63 302.387 349.083 303.834C345.99 306.728 342.426 310.691 338.389 315.737C334.36 320.773 330.173 326.623 325.83 333.29C321.49 339.951 317.351 347.017 313.413 354.49C309.479 361.954 306.05 369.518 303.126 377.181C300.209 384.825 298.101 392.207 296.795 399.329C296.7 400 296.602 401.077 296.502 402.579C296.397 404.154 296.134 405.596 295.704 406.897C295.522 407.606 295.21 408.248 294.7 408.719C294.162 409.216 293.491 409.44 292.768 409.44H292.745L292.723 409.439C291.447 409.381 290.305 409.029 289.339 408.344C288.376 407.66 287.651 406.689 287.137 405.49L287.129 405.471L287.122 405.452C286.292 403.276 285.715 401.235 285.398 399.332L285.396 399.325L285.395 399.317C284.575 393.884 284.168 387.55 284.168 380.32C284.168 374.515 284.423 368.509 284.931 362.302C285.44 356.097 286.152 350.193 287.069 344.591C287.986 338.987 289.06 334.225 290.294 330.315L290.297 330.307L290.299 330.3C291.141 327.776 292.302 325.502 293.787 323.487L293.792 323.48L293.792 323.48C294.585 322.423 295.373 321.581 296.163 320.997C296.952 320.412 297.803 320.04 298.696 320.04C300.005 320.04 300.816 321.009 301.281 322.151C301.599 322.803 301.789 323.63 301.894 324.578C302.002 325.551 302.027 326.712 301.976 328.052C301.973 328.728 301.824 329.624 301.569 330.696C301.308 331.792 300.92 333.133 300.411 334.713C299.504 337.738 298.393 341.674 297.08 346.524C295.875 351.345 294.818 356.931 293.91 363.286C293.006 369.615 292.552 376.609 292.552 384.272C292.552 386.294 292.599 388.365 292.693 390.483C293.397 388.447 294.223 386.111 295.171 383.477L295.174 383.469L295.177 383.461C297.109 378.378 299.445 372.64 302.185 366.246L302.19 366.234L302.19 366.234C305.035 359.833 308.184 353.231 311.636 346.428L311.639 346.422C315.198 339.507 319.012 332.795 323.08 326.286C327.156 319.764 331.44 313.848 335.933 308.538C340.438 303.214 345.065 298.942 349.817 295.739L349.823 295.735L349.83 295.73C352.306 294.115 354.926 293.288 357.672 293.288C360.634 293.288 363.203 294.227 365.322 296.119C367.626 298.083 368.615 300.842 368.398 304.224C368.188 308.612 367.092 313.035 365.125 317.487C363.282 321.787 361.081 325.983 358.525 330.074C356.1 334.116 353.827 338.006 351.706 341.743C348.782 347.087 345.805 353.041 342.775 359.605C339.849 366.162 337.125 373.024 334.601 380.19C332.183 387.346 330.218 394.55 328.707 401.804C327.2 409.039 326.448 416.014 326.448 422.728C326.448 428.316 327.146 433.75 328.541 439.033C329.638 442.921 330.941 445.434 332.353 446.765C333.964 448.183 335.406 448.784 336.696 448.784C338.322 448.784 339.801 448.336 341.157 447.432L341.17 447.424L341.182 447.416C342.725 446.452 343.89 445.416 344.712 444.32L344.74 444.282L344.772 444.247C345.27 443.7 345.602 443.295 345.792 443.021C345.794 443.018 345.795 443.016 345.797 443.014L345.538 442.497L346.433 442.05C346.758 441.887 347.113 441.792 347.488 441.792C347.759 441.792 348.081 441.834 348.383 441.994C348.715 442.169 348.962 442.456 349.083 442.818C349.193 443.148 349.176 443.476 349.127 443.744C349.08 443.997 348.993 444.254 348.884 444.506C348.556 445.582 348.073 446.645 347.444 447.697C346.852 448.782 346.335 449.615 345.915 450.035C344.319 451.631 342.593 452.826 340.735 453.592C338.994 454.353 337.189 454.736 335.328 454.736C331.625 454.736 328.212 453.422 325.114 450.858C322.019 448.297 319.883 445.035 318.713 441.101ZM340.344 452.672C342.067 451.963 343.688 450.848 345.208 449.328C345.512 449.024 345.968 448.315 346.576 447.2C347.184 446.187 347.64 445.173 347.944 444.16C348.257 443.455 348.238 443.022 347.885 442.862C347.781 442.816 347.649 442.792 347.488 442.792C347.285 442.792 347.083 442.843 346.88 442.944C346.981 443.147 346.525 443.805 345.512 444.92C344.6 446.136 343.333 447.251 341.712 448.264C340.192 449.277 338.52 449.784 336.696 449.784C335.075 449.784 333.403 449.024 331.68 447.504C330.059 445.984 328.691 443.248 327.576 439.296C326.157 433.925 325.448 428.403 325.448 422.728C325.448 415.939 326.208 408.896 327.728 401.6C329.248 394.304 331.224 387.059 333.656 379.864C336.189 372.669 338.925 365.779 341.864 359.192C344.904 352.605 347.893 346.627 350.832 341.256C352.96 337.507 355.24 333.605 357.672 329.552C360.205 325.499 362.384 321.344 364.208 317.088C366.133 312.731 367.197 308.424 367.4 304.168C367.603 301.027 366.691 298.595 364.664 296.872C362.739 295.149 360.408 294.288 357.672 294.288C355.139 294.288 352.707 295.048 350.376 296.568C345.715 299.709 341.155 303.915 336.696 309.184C332.237 314.453 327.981 320.331 323.928 326.816C319.875 333.301 316.075 339.989 312.528 346.88C309.083 353.669 305.941 360.256 303.104 366.64C300.368 373.024 298.037 378.749 296.112 383.816C294.775 387.53 293.683 390.645 292.836 393.161C292.527 394.078 292.252 394.915 292.008 395.672C291.94 394.783 291.879 393.901 291.826 393.028C291.643 390.018 291.552 387.099 291.552 384.272C291.552 376.571 292.008 369.528 292.92 363.144C293.832 356.76 294.896 351.136 296.112 346.272C297.429 341.408 298.544 337.456 299.456 334.416C300.469 331.275 300.976 329.147 300.976 328.032C301.077 325.397 300.875 323.573 300.368 322.56C299.963 321.547 299.405 321.04 298.696 321.04C297.48 321.04 296.112 322.053 294.592 324.08C293.173 326.005 292.059 328.184 291.248 330.616C290.032 334.467 288.968 339.179 288.056 344.752C287.144 350.325 286.435 356.203 285.928 362.384C285.421 368.565 285.168 374.544 285.168 380.32C285.168 387.515 285.573 393.797 286.384 399.168C286.688 400.992 287.245 402.968 288.056 405.096C288.968 407.224 290.539 408.339 292.768 408.44C293.781 408.44 294.44 407.832 294.744 406.616C295.149 405.4 295.403 404.032 295.504 402.512C295.605 400.992 295.707 399.877 295.808 399.168C297.125 391.973 299.253 384.525 302.192 376.824C305.131 369.123 308.576 361.523 312.528 354.024C316.48 346.525 320.635 339.432 324.992 332.744C329.349 326.056 333.555 320.179 337.608 315.112C341.661 310.045 345.259 306.043 348.4 303.104C351.541 300.165 353.872 298.696 355.392 298.696C356.608 298.696 357.216 299.608 357.216 301.432C357.216 302.851 356.861 304.675 356.152 306.904C354.835 311.261 353.011 316.632 350.68 323.016C348.349 329.299 345.765 336.189 342.928 343.688C340.192 351.085 337.355 358.787 334.416 366.792C331.579 374.696 328.944 382.6 326.512 390.504C324.181 398.307 322.256 405.704 320.736 412.696C319.317 419.688 318.608 425.92 318.608 431.392C318.608 433.115 318.659 434.736 318.76 436.256C318.963 437.877 319.267 439.397 319.672 440.816C320.787 444.565 322.813 447.656 325.752 450.088C328.691 452.52 331.883 453.736 335.328 453.736C337.051 453.736 338.723 453.381 340.344 452.672Z" fill="black"/>
<path d="M172.656 589.784C171.541 589.784 170.629 589.43 169.92 588.72C169.109 588.112 168.704 587.251 168.704 586.136C168.704 584.718 169.413 583.046 170.832 581.12C172.149 579.195 174.379 577.067 177.52 574.736C178.027 573.419 178.381 572.203 178.584 571.088C178.888 569.974 179.141 568.758 179.344 567.44C180.053 562.982 181.32 558.472 183.144 553.912C184.968 549.251 186.792 544.894 188.616 540.84C186.691 540.435 184.765 538.915 182.84 536.28C181.016 533.646 180.104 530.859 180.104 527.92C180.104 527.211 180.256 526.046 180.56 524.424C180.864 522.702 181.371 521.84 182.08 521.84C182.992 521.84 183.448 522.6 183.448 524.12C183.448 525.64 183.448 526.704 183.448 527.312C183.448 529.44 184.056 531.568 185.272 533.696C186.488 535.824 187.957 537.344 189.68 538.256C191.403 534.507 193.581 530.099 196.216 525.032C198.851 519.864 201.84 514.443 205.184 508.768C208.528 502.992 212.176 497.368 216.128 491.896C220.08 486.424 224.235 481.459 228.592 477C233.051 472.542 237.661 468.995 242.424 466.36C247.187 463.726 252.051 462.408 257.016 462.408C261.069 462.408 264.008 463.472 265.832 465.6C267.656 467.627 268.568 470.414 268.568 473.96C268.568 477.71 267.656 482.016 265.832 486.88C264.008 491.744 261.424 496.811 258.08 502.08C254.837 507.248 251.037 512.315 246.68 517.28C242.323 522.144 237.56 526.603 232.392 530.656C227.224 534.608 221.853 537.75 216.28 540.08C210.707 542.411 205.133 543.576 199.56 543.576C198.445 543.576 197.331 543.526 196.216 543.424C195.101 543.222 194.037 542.918 193.024 542.512C190.997 547.275 189.123 552.038 187.4 556.8C185.677 561.563 184.309 566.528 183.296 571.696C191.099 566.934 199.56 563.488 208.68 561.36C217.8 559.232 226.92 558.168 236.04 558.168C238.472 558.168 241.259 558.624 244.4 559.536C247.541 560.347 250.227 561.664 252.456 563.488C254.787 565.312 255.952 567.795 255.952 570.936C255.952 573.47 255.699 574.736 255.192 574.736C254.685 574.736 254.077 573.824 253.368 572C251.949 568.352 249.72 566.072 246.68 565.16C243.64 564.147 240.296 563.64 236.648 563.64C230.467 563.64 225.147 563.944 220.688 564.552C216.331 565.059 212.277 565.87 208.528 566.984C204.88 568.099 201.08 569.467 197.128 571.088C193.176 572.71 188.515 574.584 183.144 576.712C182.333 581.374 180.813 584.718 178.584 586.744C176.456 588.771 174.48 589.784 172.656 589.784ZM198.8 540.84C204.171 540.84 209.491 539.675 214.76 537.344C220.131 534.912 225.248 531.72 230.112 527.768C235.077 523.715 239.637 519.256 243.792 514.392C247.947 509.528 251.544 504.614 254.584 499.648C257.725 494.582 260.157 489.819 261.88 485.36C263.603 480.8 264.464 476.95 264.464 473.808C264.464 471.478 263.907 469.654 262.792 468.336C261.779 467.019 260.157 466.36 257.928 466.36C254.179 466.36 250.227 467.678 246.072 470.312C242.019 472.947 237.864 476.494 233.608 480.952C229.352 485.411 225.197 490.326 221.144 495.696C217.192 501.067 213.443 506.539 209.896 512.112C206.451 517.584 203.36 522.803 200.624 527.768C197.888 532.632 195.76 536.736 194.24 540.08C194.747 540.384 195.507 540.587 196.52 540.688C197.533 540.79 198.293 540.84 198.8 540.84Z" fill="white"/>
<path fill-rule="evenodd" clip-rule="evenodd" d="M177.608 570.867L177.619 570.825C177.912 569.752 178.158 568.574 178.356 567.288L178.356 567.283C179.078 562.746 180.366 558.166 182.214 553.544C183.89 549.262 185.567 545.233 187.244 541.458C185.403 540.704 183.673 539.114 182.033 536.87L182.025 536.86L182.018 536.849C180.089 534.063 179.104 531.081 179.104 527.92C179.104 527.11 179.272 525.866 179.576 524.245C179.736 523.343 179.964 522.561 180.306 521.979C180.658 521.382 181.235 520.84 182.08 520.84C182.875 520.84 183.548 521.204 183.964 521.896C184.33 522.506 184.448 523.293 184.448 524.12V527.312C184.448 529.241 184.997 531.2 186.14 533.2C187.054 534.799 188.093 535.99 189.246 536.814C190.896 533.276 192.924 529.196 195.327 524.574C197.971 519.388 200.969 513.951 204.321 508.264C207.681 502.46 211.347 496.809 215.317 491.311C219.296 485.802 223.482 480.798 227.877 476.301L227.885 476.293C232.399 471.778 237.084 468.172 241.94 465.485C246.836 462.777 251.865 461.408 257.016 461.408C261.222 461.408 264.497 462.512 266.584 464.94C268.612 467.199 269.568 470.248 269.568 473.96C269.568 477.866 268.619 482.295 266.768 487.231C264.916 492.17 262.299 497.298 258.926 502.613C255.653 507.829 251.821 512.938 247.432 517.94L247.425 517.947C243.028 522.855 238.223 527.354 233.009 531.443L233 531.451C227.769 535.451 222.324 538.637 216.666 541.003C210.981 543.38 205.277 544.576 199.56 544.576C198.415 544.576 197.27 544.524 196.126 544.42L196.081 544.416L196.037 544.408C195.19 544.254 194.369 544.044 193.574 543.778C191.696 548.233 189.951 552.687 188.34 557.14C186.882 561.172 185.68 565.352 184.735 569.682C192.082 565.459 199.989 562.361 208.453 560.386C217.645 558.241 226.842 557.168 236.04 557.168C238.589 557.168 241.467 557.645 244.664 558.572C247.918 559.413 250.731 560.787 253.081 562.707C255.665 564.733 256.952 567.513 256.952 570.936C256.952 572.219 256.889 573.249 256.743 573.982C256.671 574.34 256.564 574.709 256.382 575.013C256.197 575.322 255.816 575.736 255.192 575.736C254.754 575.736 254.404 575.539 254.16 575.339C253.915 575.139 253.705 574.879 253.524 574.607C253.16 574.061 252.8 573.298 252.436 572.363C251.1 568.928 249.069 566.921 246.393 566.118L246.378 566.114L246.364 566.109C243.439 565.134 240.203 564.64 236.648 564.64C230.497 564.64 225.224 564.943 220.823 565.543L220.813 565.544L220.804 565.546C216.498 566.046 212.504 566.846 208.817 567.942C205.203 569.046 201.433 570.403 197.508 572.013C193.678 573.584 189.185 575.392 184.029 577.437C183.177 581.921 181.628 585.323 179.265 587.476C177.062 589.572 174.852 590.784 172.656 590.784C171.333 590.784 170.174 590.362 169.263 589.477C168.212 588.661 167.704 587.505 167.704 586.136C167.704 584.406 168.556 582.526 170.017 580.541C171.391 578.538 173.637 576.396 176.688 574.109C177.123 572.942 177.424 571.876 177.6 570.909L177.608 570.867ZM177.52 574.736C174.379 577.067 172.149 579.195 170.832 581.12C169.413 583.046 168.704 584.718 168.704 586.136C168.704 587.251 169.109 588.112 169.92 588.72C170.629 589.43 171.541 589.784 172.656 589.784C174.48 589.784 176.456 588.771 178.584 586.744C180.813 584.718 182.333 581.374 183.144 576.712C188.515 574.584 193.176 572.71 197.128 571.088C201.08 569.467 204.88 568.099 208.528 566.984C212.277 565.87 216.331 565.059 220.688 564.552C225.147 563.944 230.467 563.64 236.648 563.64C240.296 563.64 243.64 564.147 246.68 565.16C249.72 566.072 251.949 568.352 253.368 572C254.077 573.824 254.685 574.736 255.192 574.736C255.699 574.736 255.952 573.47 255.952 570.936C255.952 567.795 254.787 565.312 252.456 563.488C250.227 561.664 247.541 560.347 244.4 559.536C241.259 558.624 238.472 558.168 236.04 558.168C226.92 558.168 217.8 559.232 208.68 561.36C200.01 563.383 191.935 566.597 184.455 571.001C184.067 571.23 183.681 571.461 183.296 571.696C183.383 571.251 183.473 570.808 183.566 570.366C184.548 565.675 185.826 561.153 187.4 556.8C189.123 552.038 190.997 547.275 193.024 542.512C193.024 542.512 193.024 542.512 193.024 542.512C194.037 542.918 195.101 543.222 196.216 543.424C197.331 543.526 198.445 543.576 199.56 543.576C205.133 543.576 210.707 542.411 216.28 540.08C221.853 537.75 227.224 534.608 232.392 530.656C237.56 526.603 242.323 522.144 246.68 517.28C251.037 512.315 254.837 507.248 258.08 502.08C261.424 496.811 264.008 491.744 265.832 486.88C267.656 482.016 268.568 477.71 268.568 473.96C268.568 470.414 267.656 467.627 265.832 465.6C264.008 463.472 261.069 462.408 257.016 462.408C252.051 462.408 247.187 463.726 242.424 466.36C237.661 468.995 233.051 472.542 228.592 477C224.235 481.459 220.08 486.424 216.128 491.896C212.176 497.368 208.528 502.992 205.184 508.768C201.84 514.443 198.851 519.864 196.216 525.032C193.791 529.695 191.753 533.8 190.101 537.347C189.958 537.654 189.817 537.957 189.68 538.256C189.386 538.1 189.099 537.927 188.819 537.735C187.462 536.807 186.28 535.46 185.272 533.696C184.056 531.568 183.448 529.44 183.448 527.312V524.12C183.448 522.6 182.992 521.84 182.08 521.84C181.371 521.84 180.864 522.702 180.56 524.424C180.256 526.046 180.104 527.211 180.104 527.92C180.104 530.859 181.016 533.646 182.84 536.28C184.444 538.475 186.048 539.897 187.653 540.544C187.974 540.674 188.295 540.773 188.616 540.84C188.477 541.149 188.338 541.459 188.2 541.771C186.514 545.558 184.829 549.606 183.144 553.912C181.32 558.472 180.053 562.982 179.344 567.44C179.141 568.758 178.888 569.974 178.584 571.088C178.381 572.203 178.027 573.419 177.52 574.736ZM253.731 499.126L253.734 499.121C256.849 494.097 259.25 489.391 260.946 485.004C262.646 480.503 263.464 476.78 263.464 473.808C263.464 471.631 262.944 470.064 262.029 468.982L262.014 468.964L261.999 468.946C261.236 467.953 259.961 467.36 257.928 467.36C254.42 467.36 250.654 468.592 246.612 471.154C242.64 473.736 238.546 477.227 234.331 481.643C230.106 486.07 225.977 490.953 221.946 496.294C218.009 501.644 214.274 507.096 210.741 512.647C207.305 518.104 204.225 523.305 201.5 528.251L201.496 528.258C199.026 532.648 197.061 536.405 195.595 539.531C195.876 539.597 196.214 539.653 196.62 539.693C197.626 539.794 198.345 539.84 198.8 539.84C204.02 539.84 209.202 538.709 214.352 536.431C219.638 534.037 224.681 530.892 229.481 526.992C234.4 522.977 238.916 518.561 243.032 513.743C247.156 508.915 250.721 504.042 253.731 499.126ZM230.112 527.768C225.248 531.72 220.131 534.912 214.76 537.344C209.491 539.675 204.171 540.84 198.8 540.84C198.293 540.84 197.533 540.79 196.52 540.688C196.004 540.637 195.553 540.559 195.168 540.454C195.055 540.424 194.947 540.391 194.846 540.355C194.614 540.275 194.413 540.184 194.24 540.08C195.76 536.736 197.888 532.632 200.624 527.768C203.36 522.803 206.451 517.584 209.896 512.112C213.443 506.539 217.192 501.067 221.144 495.696C225.197 490.326 229.352 485.411 233.608 480.952C237.864 476.494 242.019 472.947 246.072 470.312C250.227 467.678 254.179 466.36 257.928 466.36C260.157 466.36 261.779 467.019 262.792 468.336C263.907 469.654 264.464 471.478 264.464 473.808C264.464 476.95 263.603 480.8 261.88 485.36C260.157 489.819 257.725 494.582 254.584 499.648C251.544 504.614 247.947 509.528 243.792 514.392C239.637 519.256 235.077 523.715 230.112 527.768Z" fill="black"/>
</svg>
