<svg width="40" height="40" viewBox="0 0 40 40" fill="none" xmlns="http://www.w3.org/2000/svg">
<g id="14 1" clip-path="url(#clip0_26_276)">
<g id="Layer 2">
<g id="Shapes">
<g id="14">
<path id="Vector" d="M37.5269 10.3791C35.6257 6.91346 32.74 4.08915 29.2345 2.26301C25.7289 0.436872 21.7608 -0.309139 17.8315 0.119235C13.9021 0.547608 10.1879 2.13114 7.15813 4.66976C4.12834 7.20838 1.91893 10.5882 0.809059 14.3821C0.795175 14.3997 0.78461 14.4197 0.777879 14.4411C0.728685 14.6085 0.688151 14.7784 0.656438 14.9499C-0.330804 18.7293 -0.189229 22.7151 1.06367 26.4149C2.31657 30.1147 4.62589 33.3663 7.70629 35.7679C10.7867 38.1696 14.5032 39.6161 18.3965 39.9286C22.2899 40.2412 26.1895 39.4061 29.6135 37.5266C34.1278 35.0635 37.5105 30.9451 39.0498 26.0381C39.099 25.9068 39.1466 25.7738 39.186 25.636C39.1885 25.6235 39.1885 25.6107 39.186 25.5982C39.9301 23.0778 40.1666 20.4348 39.8818 17.8223C39.597 15.2099 38.7966 12.6799 37.5269 10.3791ZM39.6127 18.4933C39.6357 18.8002 39.6504 19.1088 39.6587 19.4157C39.6258 19.1892 39.5914 18.9627 39.5487 18.7428C39.5733 18.6591 39.5914 18.577 39.6127 18.4933ZM7.1765 31.459C7.15517 30.8837 7.16997 30.3076 7.22081 29.7341C8.50719 30.5342 9.84795 31.2433 11.2333 31.8562C11.1283 32.4142 11.0413 32.9591 10.9806 33.481C9.66565 32.8992 8.39435 32.2235 7.1765 31.459ZM10.951 33.7075C10.9116 34.085 10.8859 34.4493 10.8739 34.8006C9.65104 34.2583 8.46718 33.632 7.33076 32.9263C7.25954 32.5257 7.21187 32.1212 7.18799 31.7151C8.39439 32.467 9.65242 33.1329 10.9527 33.7075H10.951ZM34.1922 15.1912C34.3563 15.1173 34.5073 15.0402 34.655 14.9581C35.1091 14.7141 35.529 14.4111 35.9038 14.0571C36.5718 15.345 37.1031 16.6993 37.4891 18.0978C37.5302 18.2455 37.5646 18.3916 37.6024 18.5376C37.0057 19.1102 36.3152 19.5759 35.5608 19.9146C35.2484 18.302 34.7903 16.721 34.1922 15.1912ZM35.6856 22.3371C34.6816 22.7707 33.6301 23.0846 32.5527 23.2726C32.5527 22.5537 32.5248 21.8267 32.4723 21.0996C33.4783 20.922 34.4606 20.6296 35.4 20.2281C35.528 20.936 35.6232 21.639 35.6856 22.3371ZM34.1134 14.9893C34.1036 14.9647 34.0953 14.9417 34.0871 14.9187C33.4795 13.4049 32.7381 11.9483 31.8717 10.5662C31.9701 10.5202 32.0686 10.4743 32.1605 10.4234C32.4745 10.2548 32.7656 10.0469 33.027 9.80467C34.0977 11.0466 35.0273 12.4034 35.7988 13.8503C35.3075 14.325 34.7371 14.7105 34.1134 14.9893ZM28.6272 18.8741C28.6108 17.9862 28.5714 17.1114 28.5107 16.2481C29.5004 16.2539 30.4887 16.1743 31.4647 16.0102C31.7145 17.0544 31.9117 18.1104 32.0555 19.1744C32.1326 19.7522 32.1917 20.3233 32.2376 20.9125C31.0412 21.1102 29.83 21.2052 28.6174 21.1964C28.6393 20.4305 28.6425 19.6564 28.6272 18.8741ZM24.9184 15.741C23.7875 15.563 22.6688 15.3147 21.5689 14.9975L22.8473 10.6122C23.6236 10.8342 24.4128 11.0085 25.2105 11.1341C25.1809 12.5028 25.0808 14.0653 24.9184 15.7344V15.741ZM25.4107 11.1669C26.1547 11.2766 26.9053 11.3364 27.6573 11.3458C27.942 12.895 28.1409 14.4587 28.2531 16.0298C27.2 16.0092 26.1495 15.9176 25.1087 15.7558C25.2728 14.0916 25.3729 12.5324 25.4107 11.1603V11.1669ZM15.935 18.4162C16.6161 16.8636 17.3267 15.3553 18.034 13.9521C19.0972 14.4147 20.1878 14.8115 21.2997 15.1403L19.9229 19.8588C18.5649 19.4614 17.233 18.9796 15.935 18.4162ZM19.8572 20.0722L19.2369 22.2058C17.7868 21.7795 16.3645 21.2637 14.9783 20.6614C15.2589 19.977 15.5477 19.2959 15.8415 18.623C17.1486 19.189 18.4898 19.673 19.8572 20.0722ZM15.7693 18.3423C14.5622 17.8107 13.3931 17.1965 12.2705 16.5042C13.1468 15.055 14.0757 13.6681 15.0324 12.3863C15.9413 12.9469 16.8871 13.4453 17.8633 13.8782C17.1609 15.2782 16.452 16.7848 15.7693 18.3423ZM15.6823 18.5458C15.388 19.2188 15.1008 19.8977 14.8207 20.5826C13.5241 20.0148 12.2688 19.3566 11.0642 18.6131C11.4154 17.9681 11.7814 17.3281 12.1589 16.6995C13.2897 17.3948 14.467 18.0117 15.6823 18.5458ZM14.7403 20.7845C14.6024 21.1193 14.4673 21.4552 14.3349 21.7922C14.1856 22.173 14.0182 22.6128 13.8426 23.0822C12.4705 22.4743 11.1433 21.7695 9.87117 20.9732C10.2136 20.2412 10.5779 19.5164 10.9641 18.7986C12.1751 19.5468 13.4369 20.2093 14.7403 20.7812V20.7845ZM13.9198 23.3645C15.3837 24.0057 16.8866 24.5539 18.4196 25.0057L17.1576 29.3369C15.5624 28.8705 13.999 28.3014 12.4772 27.6333C12.8973 26.2481 13.3864 24.8121 13.9263 23.3612L13.9198 23.3645ZM13.9969 23.1528C14.2824 22.3896 14.5844 21.6215 14.8962 20.8551C16.2884 21.4621 17.7173 21.9812 19.1745 22.4093L18.4869 24.7825C16.9595 24.3332 15.4621 23.7877 14.0034 23.1495L13.9969 23.1528ZM19.3829 22.4717C20.8413 22.892 22.3244 23.2209 23.8237 23.4564C23.676 24.277 23.5152 25.0845 23.3462 25.8871C21.7735 25.6402 20.2179 25.2943 18.6888 24.8514L19.3829 22.4717ZM19.4453 22.2616L20.064 20.128C21.4321 20.5245 22.8238 20.8347 24.2307 21.0569C24.1175 21.7807 23.9944 22.5094 23.8648 23.2348C22.3749 23.0017 20.901 22.6755 19.4519 22.2583L19.4453 22.2616ZM20.1247 19.9278L21.5016 15.2043C22.6146 15.525 23.7464 15.7766 24.8905 15.9576C24.7263 17.5201 24.5245 19.1728 24.2652 20.8468C22.8694 20.6259 21.4887 20.3178 20.1313 19.9245L20.1247 19.9278ZM21.3605 14.9351C20.2615 14.6109 19.1835 14.2195 18.1324 13.7633C18.8939 12.2665 19.6504 10.8944 20.3643 9.71769C21.1077 10.0396 21.87 10.3159 22.6471 10.5449L21.3605 14.9351ZM17.9618 13.6878C16.9997 13.2586 16.0677 12.7651 15.1719 12.2107C16.1121 10.9444 17.1213 9.7308 18.1948 8.57539C18.8338 8.9726 19.4989 9.32626 20.1854 9.63398C19.4716 10.8107 18.7183 12.1845 17.9618 13.6829V13.6878ZM14.9586 12.0893C14.1294 11.5675 13.347 10.975 12.62 10.3184C13.797 9.19417 15.065 8.16929 16.4109 7.2542C16.9002 7.69465 17.4243 8.09478 17.9782 8.45066C16.9057 9.60554 15.8976 10.8186 14.9586 12.0843V12.0893ZM12.4592 10.1756C11.8747 9.63346 11.3523 9.02795 10.9018 8.37024C10.9248 8.35547 10.9461 8.33906 10.9674 8.32264C12.2912 7.37446 13.6972 6.54671 15.1686 5.84931C15.485 6.30583 15.8492 6.72728 16.255 7.10649C14.9068 8.02244 13.6371 9.04901 12.4592 10.1756ZM12.4592 10.4743C13.1946 11.1374 13.9858 11.7359 14.824 12.2632C14.3174 12.9504 13.8169 13.6648 13.3224 14.4067C12.8848 15.0632 12.4679 15.7197 12.0719 16.3761C11.0444 15.7339 10.0747 15.0036 9.17371 14.1933C9.52326 13.7272 9.88759 13.2677 10.265 12.8212C10.9598 11.9998 11.6965 11.2148 12.4723 10.4694L12.4592 10.4743ZM11.9603 16.5764C11.5774 17.2143 11.2141 17.8527 10.8706 18.4917C9.78336 17.8073 8.75765 17.0297 7.80504 16.1677C8.19343 15.5572 8.60644 14.9554 9.04406 14.3624C9.95098 15.1825 10.9266 15.9232 11.9603 16.5764ZM10.7656 18.6739C10.3717 19.4048 10.0107 20.128 9.68245 20.8436C9.53967 20.75 9.39033 20.6614 9.24756 20.5662C8.27903 19.9257 7.36065 19.2125 6.50037 18.4326C6.86469 17.7334 7.26348 17.0376 7.6918 16.3532C8.64864 17.2126 9.67695 17.989 10.7656 18.6739ZM9.78091 21.1817C11.0567 21.9771 12.3871 22.6813 13.7622 23.289C13.306 24.5199 12.789 26.0003 12.318 27.5562C10.8764 26.9205 9.48273 26.1811 8.14803 25.3438C8.59821 23.9225 9.14093 22.5321 9.77271 21.1817H9.78091ZM12.4067 27.9435C13.9228 28.6082 15.4794 29.1761 17.0674 29.6438L15.981 33.3678C14.4365 32.9142 12.9226 32.3627 11.4483 31.7167C11.6797 30.5449 11.998 29.2713 12.3903 27.9435H12.4067ZM17.2807 29.7062C18.8767 30.1685 20.5002 30.5297 22.1416 30.7878C21.7576 32.1155 21.3441 33.3546 20.9075 34.4641C19.316 34.2213 17.7417 33.8765 16.1943 33.4318L17.2807 29.7062ZM17.3726 29.3927L18.6346 25.0615C20.1674 25.5069 21.7268 25.855 23.3035 26.1037C22.9753 27.6136 22.6192 29.0842 22.2286 30.4677C20.5886 30.2131 18.9666 29.8535 17.3726 29.3911V29.3927ZM23.4824 26.1316C24.9706 26.3627 26.4731 26.4888 27.979 26.5091C27.7861 27.9781 27.4983 29.4331 27.1174 30.8649C25.5417 30.8549 23.9688 30.7315 22.4108 30.4956C22.8489 28.9348 23.2067 27.4085 23.4824 26.13V26.1316ZM23.5283 25.9166C23.635 25.4242 23.7269 24.9565 23.8057 24.5511C23.8763 24.1966 23.9419 23.8404 24.0075 23.4843C25.4148 23.7029 26.8357 23.8219 28.2596 23.8404C28.1994 24.6611 28.1163 25.4757 28.0102 26.2842C26.5094 26.2661 25.0118 26.1427 23.5283 25.915V25.9166ZM24.0469 23.2677C24.1799 22.5406 24.3013 21.8119 24.4162 21.0914C25.7292 21.292 27.0545 21.4017 28.3827 21.4196C28.363 22.1483 28.3269 22.8803 28.276 23.6107C26.8601 23.5922 25.4471 23.477 24.0469 23.266V23.2677ZM24.4523 20.8715C24.7116 19.1909 24.9249 17.5398 25.0841 15.9823C26.1386 16.1434 27.2029 16.2323 28.2695 16.2481C28.3827 17.8368 28.4336 19.506 28.3876 21.1981C27.07 21.1778 25.7552 21.0687 24.4523 20.8715ZM27.8986 11.3409C28.5583 11.3387 29.2169 11.2838 29.8679 11.1767C30.5128 12.67 31.0326 14.2142 31.422 15.7935C30.4572 15.9531 29.4804 16.03 28.5025 16.0233C28.3885 14.4525 28.1868 12.8892 27.8986 11.3409ZM30.0829 11.1341C30.6279 11.0354 31.161 10.8791 31.6731 10.668C32.539 12.0427 33.2788 13.4929 33.8836 15.0008C33.8951 15.0254 33.9033 15.0533 33.9148 15.0779C33.1808 15.3877 32.4146 15.615 31.6304 15.7558C31.2417 14.1751 30.723 12.6293 30.0796 11.1341H30.0829ZM31.7617 10.3857C30.9003 9.02324 29.8945 7.75765 28.7618 6.61084L28.8176 6.58294C28.9776 6.4956 29.1269 6.38984 29.2623 6.26783C30.5801 7.26725 31.794 8.39662 32.8859 9.63891C32.553 9.94733 32.1723 10.1995 31.7584 10.3857H31.7617ZM31.5599 10.4759C31.0555 10.6824 30.5307 10.8347 29.9943 10.9306C29.3837 9.53997 28.6546 8.20454 27.8149 6.93909C28.068 6.88618 28.3153 6.80867 28.5534 6.70767C29.6882 7.85102 30.6952 9.11455 31.5566 10.4759H31.5599ZM29.7727 10.9683C29.1391 11.0676 28.4989 11.1181 27.8576 11.1193C27.5408 9.50269 27.1371 8.11092 26.6694 7.06546C26.9752 7.05952 27.2801 7.03155 27.5819 6.98176C28.4261 8.24472 29.1581 9.57921 29.7694 10.9699L29.7727 10.9683ZM27.6196 11.1177C26.8823 11.1056 26.1466 11.0453 25.4172 10.9371C25.4534 9.26471 25.3828 7.891 25.1973 6.96042C25.6051 7.02466 26.017 7.05921 26.4298 7.06382C26.8877 8.07482 27.293 9.46822 27.6163 11.1193L27.6196 11.1177ZM25.2187 10.9092C24.4405 10.7843 23.6705 10.6127 22.9129 10.3955L23.9895 6.69783C24.3177 6.78974 24.6459 6.86469 24.9742 6.92268C25.1629 7.85489 25.2433 9.23352 25.2154 10.9109L25.2187 10.9092ZM22.7012 10.3397C21.9445 10.1153 21.202 9.84563 20.4776 9.53223C21.3539 8.10436 22.1613 6.98504 22.8309 6.30722C23.1328 6.43195 23.4512 6.54355 23.7778 6.64367L22.7012 10.3397ZM20.2921 9.45181C19.6187 9.15188 18.9663 8.80699 18.3392 8.41948C19.4978 7.20004 20.5892 6.24321 21.5213 5.64088C21.8726 5.85715 22.2383 6.04907 22.6159 6.21531C21.9595 6.89313 21.1701 8.01902 20.2921 9.44688V9.45181ZM18.1374 8.28818C17.5962 7.94661 17.0831 7.56244 16.6029 7.13932C17.867 6.2956 19.2025 5.56411 20.5941 4.9532C20.8224 5.15658 21.0648 5.3436 21.3194 5.51286C20.3627 6.13817 19.273 7.095 18.1374 8.28818ZM16.4388 6.9752C16.0394 6.60409 15.6807 6.19145 15.3688 5.74427C16.8262 5.06037 18.3538 4.53755 19.9245 4.18511C20.0695 4.39772 20.2344 4.59611 20.4168 4.77759C19.0298 5.39509 17.6989 6.13147 16.4388 6.97848V6.9752ZM15.2474 5.56374C15.1883 5.46855 15.1276 5.375 15.0833 5.27817C14.9168 4.98009 14.7894 4.66181 14.7042 4.33118C16.2909 3.8747 17.9193 3.57834 19.5651 3.44656C19.6131 3.61845 19.682 3.78381 19.7702 3.93892L19.8014 3.99144C18.2313 4.35185 16.7045 4.88008 15.2474 5.56702V5.56374ZM19.5142 3.22007C17.8652 3.35561 16.234 3.65637 14.6451 4.11782C14.5781 3.75223 14.5915 3.37642 14.6845 3.01655C16.2782 2.69683 17.9079 2.59469 19.529 2.71293C19.5002 2.88185 19.5002 3.05443 19.529 3.22335L19.5142 3.22007ZM14.8847 5.38649C14.9339 5.4784 14.993 5.56866 15.0488 5.66057C13.5754 6.36054 12.1672 7.19046 10.8411 8.14047C10.8214 8.15524 10.8033 8.17165 10.7836 8.18478C10.6934 8.04692 10.6195 7.90577 10.5342 7.76627C10.2805 7.31247 10.0921 6.82514 9.97456 6.3187C11.4022 5.51271 12.9154 4.86864 14.4859 4.39847C14.5757 4.74364 14.7097 5.07574 14.8847 5.38649ZM12.3082 10.3217C11.5323 11.0692 10.795 11.8558 10.0993 12.6785C9.72402 13.1249 9.36189 13.5806 9.01288 14.0456C8.26738 13.358 7.60331 12.587 7.03373 11.7479C8.16327 10.5538 9.3992 9.46495 10.7262 8.49497C11.1849 9.16008 11.7154 9.77266 12.3082 10.3217ZM8.8816 14.2196C8.44397 14.8093 8.03042 15.4111 7.64093 16.0249C6.83559 15.2849 6.11958 14.4531 5.50751 13.5467C5.93748 12.9903 6.3937 12.447 6.88274 11.9186C7.45945 12.759 8.13007 13.531 8.8816 14.2196ZM7.52441 16.2038C7.09335 16.8899 6.69566 17.5819 6.33134 18.28C5.47346 17.4943 4.71459 16.607 4.07155 15.6376C4.46878 14.9762 4.90157 14.3368 5.36802 13.7223C5.98841 14.6301 6.71205 15.4628 7.52441 16.2038ZM6.38713 18.641C7.38091 19.5363 8.44931 20.3451 9.5807 21.0586C8.95172 22.4106 8.4096 23.8013 7.95766 25.2224C6.8087 24.4919 5.72435 23.6644 4.7165 22.749C5.15115 21.3331 5.7102 19.9584 6.38713 18.641ZM8.04956 25.6655C9.38674 26.4981 10.7813 27.2347 12.2229 27.8697C11.8536 29.1186 11.5205 30.4054 11.276 31.6445C9.88557 31.0268 8.54086 30.3111 7.25199 29.5027C7.30779 28.9578 7.39477 28.3949 7.51128 27.8106C7.65242 27.1032 7.83294 26.3876 8.04956 25.6655ZM11.4122 31.9366C12.8804 32.5784 14.3877 33.1266 15.9252 33.5779L15.4722 35.1337C14.0027 34.7036 12.5622 34.1801 11.1594 33.5664C11.2234 33.0494 11.3071 32.5045 11.4122 31.9366ZM16.1336 33.6451C17.6727 34.088 19.2381 34.4339 20.8205 34.6808C20.6039 35.2174 20.3807 35.7229 20.1526 36.1907C18.6425 35.9581 17.1488 35.6292 15.6806 35.2059L16.1336 33.6451ZM21.0142 34.7087C22.5116 34.9336 24.0229 35.0542 25.537 35.0697C25.2727 35.5845 24.9756 36.0817 24.6476 36.5583C23.2085 36.5461 21.7722 36.4309 20.3496 36.2137C20.5842 35.7377 20.8041 35.2306 21.0142 34.7021V34.7087ZM21.0995 34.4953C21.5541 33.3284 21.9627 32.0679 22.3205 30.8206C23.8779 31.0586 25.4501 31.187 27.0255 31.2046C26.8187 31.9301 26.5873 32.6309 26.3297 33.2972C26.118 33.8437 25.8899 34.3558 25.6536 34.835C24.1292 34.8297 22.6072 34.714 21.0995 34.4887V34.4953ZM26.5315 33.376C26.7974 32.6949 27.0354 31.9678 27.252 31.203C28.6083 31.2066 29.9625 31.0968 31.3006 30.8748C31.2661 30.9847 31.2366 31.0963 31.2005 31.203C30.8474 32.3417 30.3795 33.4415 29.8039 34.4855C28.5126 34.7077 27.2051 34.8225 25.8948 34.8285C26.118 34.3706 26.333 33.8864 26.5315 33.3694V33.376ZM27.3422 30.8698C27.7218 29.4375 28.0106 27.9827 28.2071 26.514C29.544 26.5246 30.8793 26.4203 32.1982 26.2022C32.0606 27.6641 31.7954 29.1111 31.4056 30.5268C30.0631 30.7538 28.7038 30.8663 27.3422 30.8633V30.8698ZM28.2366 26.2892C28.3461 25.497 28.4308 24.6835 28.491 23.8487C29.777 23.8559 31.0612 23.7526 32.3295 23.5401C32.3208 24.3585 32.2819 25.1666 32.213 25.9642C30.8991 26.1836 29.5688 26.2901 28.2366 26.2826V26.2892ZM28.5058 23.6222C28.5583 22.9033 28.5944 22.1713 28.6141 21.4311C29.8339 21.4399 31.0523 21.3438 32.2557 21.1439C32.3082 21.8726 32.3345 22.5975 32.3345 23.3185C31.0689 23.5251 29.7881 23.6245 28.5058 23.6156V23.6222ZM32.2803 19.1515C32.1361 18.0851 31.9378 17.0268 31.6862 15.9806C32.4793 15.8345 33.2541 15.6022 33.9969 15.288C34.5953 16.8186 35.0524 18.4008 35.3623 20.0147C34.4316 20.4134 33.458 20.703 32.4608 20.878C32.4138 20.2992 32.352 19.7215 32.2754 19.1449L32.2803 19.1515ZM32.5576 23.5089C33.6409 23.3198 34.6987 23.0065 35.7102 22.5751C35.7733 23.359 35.7941 24.1457 35.7725 24.9319C34.7056 25.3974 33.5865 25.733 32.4395 25.9314C32.5101 25.1288 32.5462 24.3197 32.5527 23.5024L32.5576 23.5089ZM35.6117 20.1362C35.8103 20.0443 36.0056 19.9475 36.191 19.8473C36.726 19.5576 37.2223 19.2013 37.668 18.7871C37.8246 19.4517 37.9473 20.1238 38.0356 20.8009C37.4094 21.3964 36.6884 21.8834 35.9022 22.2419C35.8344 21.5449 35.7375 20.843 35.6117 20.1362ZM37.709 18.0404C37.309 16.6031 36.759 15.2119 36.0679 13.8897C36.433 13.5079 36.7161 13.0555 36.9 12.5603C37.6971 13.832 38.3338 15.1975 38.7954 16.6256C38.5921 17.2705 38.246 17.8612 37.7829 18.3538C37.7533 18.2488 37.7304 18.1454 37.7008 18.0404H37.709ZM35.9563 13.6862C35.1813 12.2428 34.2501 10.8889 33.1796 9.64876C33.4377 9.37437 33.6376 9.05056 33.7671 8.69684C34.8976 9.7881 35.8981 11.0063 36.749 12.3272C36.5864 12.8323 36.3159 13.296 35.9563 13.6862ZM33.6588 8.2931C32.4872 7.17913 31.1713 6.22748 29.7464 5.46362C29.7799 5.32067 29.792 5.17356 29.7826 5.02706C31.1628 5.62348 32.4669 6.38274 33.667 7.28867C33.7303 7.62082 33.727 7.96225 33.6572 8.2931H33.6588ZM29.7448 4.77267C29.7087 4.60978 29.6536 4.45169 29.5807 4.30163C30.8199 4.62147 31.9972 5.14505 33.0647 5.85095C33.1271 5.95107 33.1895 6.04954 33.2436 6.14638C33.3852 6.40328 33.4991 6.67452 33.5833 6.9555C32.3923 6.08224 31.1042 5.34976 29.7448 4.77267ZM29.6792 5.67534C31.1077 6.44684 32.4249 7.40862 33.5948 8.53436C33.4792 8.88786 33.2883 9.21207 33.0352 9.48463C31.9434 8.24129 30.7295 7.11082 29.4117 6.11027C29.5247 5.98142 29.6152 5.83437 29.6792 5.67534ZM29.4133 5.44721C29.0424 6.71588 26.6038 7.12291 23.9731 6.35645C22.1597 5.82798 20.6236 4.81862 20.0574 3.78629C19.9531 3.62166 19.8832 3.43762 19.8519 3.24526C19.8206 3.05289 19.8286 2.85618 19.8753 2.66697C19.9378 2.48234 20.0368 2.31218 20.1665 2.16668C20.2962 2.02118 20.4539 1.9033 20.6302 1.8201C21.6624 1.25388 23.5005 1.2309 25.3139 1.75937C27.1273 2.28785 28.665 3.29392 29.2311 4.32789C29.3348 4.49283 29.4043 4.67686 29.4356 4.86911C29.4668 5.06136 29.4593 5.25793 29.4133 5.44721ZM19.9524 1.91693C18.4971 1.67355 17.0185 1.5992 15.5461 1.69537C15.7677 1.50644 16.0086 1.3414 16.2649 1.203C16.365 1.14884 16.4717 1.0996 16.5767 1.04872C17.8536 1.02768 19.1252 1.21846 20.3397 1.6133C20.1998 1.6999 20.0699 1.80173 19.9524 1.91693ZM19.7883 2.11388C19.7032 2.23228 19.6352 2.36213 19.5864 2.49957C17.9751 2.38059 16.3552 2.4783 14.7698 2.79006C14.89 2.47339 15.0712 2.18341 15.3032 1.93663C16.8 1.81739 18.3056 1.8769 19.7883 2.11388ZM14.5187 2.83274C12.9902 3.13514 11.5006 3.60861 10.078 4.24419C10.2786 3.70834 10.5985 3.22514 11.0134 2.8311C12.2979 2.37138 13.6358 2.07742 14.9947 1.95632C14.7833 2.2166 14.622 2.51374 14.5187 2.83274ZM14.4564 3.06415C14.3759 3.43243 14.3709 3.81319 14.4416 4.18347C12.871 4.65341 11.3569 5.29518 9.92697 6.09714C9.83385 5.57343 9.85625 5.0357 9.99262 4.52156C11.4204 3.86783 12.918 3.37887 14.4564 3.06415ZM10.3389 7.87787C10.4193 8.02558 10.503 8.17329 10.6015 8.321C9.27495 9.28914 8.03906 10.3757 6.909 11.5673C6.80561 11.4032 6.70551 11.2391 6.61689 11.075C6.30686 10.5201 6.07596 9.92459 5.93091 9.30574C6.04086 9.20234 6.14918 9.09566 6.25913 8.99391C7.3394 8.02121 8.51805 7.16369 9.77599 6.43523C9.89802 6.9392 10.0873 7.42444 10.3389 7.87787ZM9.7284 6.20874C8.4358 6.95443 7.22561 7.83464 6.11799 8.83471C6.03758 8.90856 5.95389 8.98242 5.88168 9.05791C5.75732 8.39358 5.78425 7.70976 5.96045 7.05726C7.11499 6.10274 8.38271 5.29409 9.73496 4.64958C9.62789 5.16356 9.62566 5.69387 9.7284 6.20874ZM6.4298 11.1735C6.53155 11.3556 6.6415 11.5427 6.75802 11.7233C6.26569 12.2485 5.80947 12.7901 5.38114 13.3415C5.27447 13.1774 5.17108 13.0034 5.07918 12.8344C4.75306 12.2528 4.50792 11.6294 4.35054 10.9814C4.78937 10.4572 5.25439 9.95542 5.74383 9.47807C5.90043 10.0697 6.1309 10.6394 6.4298 11.1735ZM4.88882 12.9394C4.99713 13.1347 5.11529 13.3317 5.24165 13.527C4.77452 14.1374 4.33958 14.7717 3.93862 15.4275C3.85 15.2831 3.76467 15.1387 3.68425 14.9926C3.32696 14.3582 3.06329 13.6755 2.90145 12.9657C3.29252 12.3512 3.71882 11.76 4.17822 11.1948C4.34209 11.8035 4.58077 12.3895 4.88882 12.9394ZM3.94683 15.8477C4.59792 16.8148 5.36144 17.7012 6.22138 18.4884C5.54345 19.805 4.98065 21.1778 4.53926 22.5915C3.65345 21.7721 2.87139 20.8472 2.21055 19.8375C2.59952 18.5207 3.14092 17.2539 3.82375 16.0627C3.86313 15.9872 3.9058 15.9199 3.94683 15.8477ZM4.43916 22.9345C4.39813 23.0806 4.35382 23.2283 4.31443 23.3743C4.01004 24.4934 3.81547 25.6395 3.73349 26.7963C2.92872 26.049 2.21284 25.2114 1.60007 24.3C1.576 22.9346 1.74169 21.5725 2.09239 20.2527C2.7688 21.2316 3.55326 22.1312 4.43095 22.9345H4.43916ZM3.92714 27.2657C4.89359 28.1283 5.92933 28.91 7.02388 29.6028C6.9661 30.1726 6.94418 30.7454 6.95824 31.3179C5.90193 30.6422 4.90543 29.8774 3.97965 29.0317C3.92112 28.4449 3.90248 27.8549 3.92385 27.2657H3.92714ZM5.54854 30.5925C6.00148 30.9284 6.47466 31.2539 6.96808 31.569C6.98637 31.9704 7.02747 32.3704 7.09116 32.7671C6.08929 32.1286 5.14435 31.4049 4.26684 30.6039C4.15996 30.1887 4.07885 29.7671 4.02396 29.3418C4.48511 29.7636 4.99385 30.1822 5.54525 30.5925H5.54854ZM7.05014 29.3681C5.94562 28.6647 4.90254 27.8691 3.93206 26.99C4.00535 25.7864 4.20223 24.5935 4.51957 23.4301C4.54911 23.3185 4.58357 23.2086 4.61475 23.1019C5.62586 24.0055 6.70994 24.824 7.85591 25.549C7.6278 26.3089 7.43907 27.0523 7.2963 27.7679C7.18635 28.3161 7.10429 28.8495 7.04685 29.3681H7.05014ZM11.1529 33.7912C12.5411 34.3974 13.9662 34.9155 15.4197 35.3422L15.1243 36.3565C13.7481 35.9526 12.3986 35.4625 11.0839 34.8892C11.0872 34.5413 11.1075 34.1753 11.1447 33.7912H11.1529ZM15.2622 36.6273C16.6184 37.0187 17.9973 37.3268 19.3912 37.5496C19.045 38.1237 18.6096 38.639 18.1013 39.076C16.9763 38.9003 15.8636 38.6537 14.7698 38.3374L15.2622 36.6273ZM15.3245 36.4172L15.6199 35.4029C17.0745 35.8248 18.5545 36.1537 20.0509 36.3876C19.8769 36.7323 19.6997 37.0529 19.5192 37.3494C18.1024 37.1288 16.7013 36.8174 15.3245 36.4172ZM20.256 36.4172C21.6608 36.6313 23.0789 36.747 24.4999 36.7635C24.2634 37.0929 24.0069 37.4075 23.7318 37.7055C22.3933 37.6894 21.0574 37.5797 19.7341 37.3773C19.9136 37.0775 20.0875 36.7575 20.256 36.4172ZM24.7674 36.7635C25.3532 36.7635 25.9293 36.7421 26.4922 36.7028C27.1781 36.6513 27.8346 36.5736 28.4615 36.4697C28.1869 36.7991 27.8915 37.1105 27.5769 37.4019C26.4052 37.6057 25.2181 37.7078 24.0289 37.7072C24.2937 37.4077 24.5403 37.0925 24.7674 36.7635ZM24.9134 36.5567C25.2327 36.0791 25.5226 35.5825 25.7816 35.0697C26.6136 35.0697 27.4227 35.0287 28.2022 34.9532C28.6945 34.9023 29.1868 34.8367 29.6529 34.7563C29.3542 35.2711 29.0203 35.7646 28.6535 36.2334C27.4184 36.4476 26.167 36.5536 24.9134 36.5501V36.5567ZM29.9368 34.707C30.981 34.5167 32.0028 34.2192 32.986 33.8191C32.6276 34.3283 32.2356 34.813 31.8126 35.27C30.9006 35.6709 29.9467 35.9687 28.9686 36.1579C29.3229 35.6938 29.6463 35.2069 29.9368 34.7005V34.707ZM30.0796 34.4428C30.6219 33.4331 31.0671 32.3741 31.4089 31.2801C31.4548 31.1357 31.4959 30.9864 31.5402 30.8403C32.7128 30.6372 33.8586 30.3013 34.9553 29.8391C34.547 31.127 33.9633 32.3525 33.2206 33.481C32.2131 33.9171 31.1593 34.2376 30.0796 34.4362V34.4428ZM31.6419 30.4841C32.0248 29.0692 32.285 27.624 32.4198 26.1644C33.5672 25.9659 34.6878 25.6355 35.7594 25.1797C35.7594 25.2453 35.7594 25.311 35.7512 25.3766C35.6869 26.7499 35.4622 28.111 35.0816 29.4321C33.9816 29.9185 32.8266 30.2696 31.6419 30.4776V30.4841ZM35.9695 25.3832C35.9695 25.2814 35.9695 25.1764 35.981 25.073C36.1943 24.9729 36.4027 24.8711 36.6046 24.7595C37.1743 24.453 37.7049 24.0788 38.1849 23.6451C38.1561 25.0003 37.9728 26.3477 37.6385 27.6612C36.9774 28.3419 36.1991 28.8978 35.3409 29.3025C35.6944 28.021 35.9052 26.7044 35.9695 25.3766V25.3832ZM35.9892 24.8301C36.0069 24.0459 35.9822 23.2614 35.9153 22.4799C36.1287 22.3814 36.3338 22.2796 36.5324 22.1713C37.0861 21.8737 37.6009 21.5087 38.0652 21.0848C38.1517 21.8328 38.1928 22.5853 38.1882 23.3382C37.5429 23.9522 36.7997 24.4542 35.9892 24.8235V24.8301ZM37.8452 18.6164C38.3034 18.1522 38.6619 17.5993 38.8988 16.9916C39.0701 17.5644 39.212 18.1456 39.3239 18.7329C39.1086 19.4296 38.737 20.0679 38.2375 20.599C38.1357 19.936 38.0061 19.2729 37.8452 18.6099V18.6164ZM39.3994 19.1794C39.4951 19.7643 39.5609 20.3537 39.5963 20.9453C39.5832 21.0044 39.5668 21.0635 39.5503 21.1193C39.3295 21.8613 38.939 22.5418 38.4098 23.1068C38.4037 22.3671 38.3544 21.6284 38.2621 20.8944C38.7542 20.4038 39.1411 19.818 39.3994 19.1728V19.1794ZM39.0219 16.6322C39.1103 16.3233 39.1654 16.0058 39.186 15.6852C39.3272 16.3039 39.4371 16.9292 39.5142 17.5562C39.5063 17.7836 39.4816 18.0102 39.4404 18.234C39.3222 17.6869 39.1811 17.1546 39.017 16.6371L39.0219 16.6322ZM38.4426 13.2217C38.4502 13.2387 38.4621 13.2533 38.4771 13.2644C38.6412 13.7288 38.7954 14.2032 38.9316 14.6791C39.0099 15.2004 38.9971 15.7312 38.8939 16.2481C38.4168 14.8611 37.7779 13.5351 36.9902 12.2977C37.1293 11.7987 37.165 11.2765 37.0953 10.7631C37.6398 11.5243 38.092 12.3474 38.4426 13.2151V13.2217ZM37.2397 10.5367C37.2758 10.6039 37.3086 10.6729 37.3447 10.7402C37.2331 10.576 37.1199 10.4119 37.0017 10.2577C36.982 10.1772 36.9607 10.0935 36.9344 10.0115C37.0378 10.1854 37.1429 10.3594 37.2397 10.5367ZM36.8278 12.0449C35.9689 10.7445 34.9671 9.54439 33.841 8.46707C33.9261 8.14338 33.9506 7.80673 33.9132 7.47413C34.9927 8.30781 35.9622 9.27511 36.7982 10.3528C36.9363 10.9073 36.9464 11.486 36.8278 12.0449ZM35.5789 7.99276C35.7791 8.25207 35.9711 8.51631 36.1582 8.78875C36.3489 9.11247 36.5093 9.4531 36.6374 9.80631C35.8166 8.82219 34.8854 7.93559 33.8623 7.16394C33.783 6.80467 33.6537 6.45828 33.4783 6.13489C34.247 6.67206 34.9518 7.2954 35.5789 7.99276ZM32.6692 4.94828C33.2211 5.41429 33.747 5.91013 34.2447 6.43359C33.9165 6.17264 33.5882 5.92809 33.2288 5.69832C33.0566 5.43241 32.8658 5.17903 32.6577 4.94007L32.6692 4.94828ZM32.7546 5.40126C31.7291 4.77595 30.6106 4.31779 29.4412 4.04396C29.3256 3.86071 29.1938 3.68823 29.0473 3.52862C30.3208 3.75511 31.0396 3.97011 31.8749 4.44935C32.1929 4.74289 32.487 5.06119 32.7546 5.40126ZM30.032 3.07564C30.2535 3.20694 30.4702 3.33988 30.6884 3.47938C30.8722 3.60904 31.0511 3.74034 31.2218 3.87492C30.5654 3.60575 29.8663 3.44327 28.7946 3.26274C28.5886 3.06871 28.3693 2.88938 28.1382 2.72606C28.7874 2.7028 29.4338 2.82213 30.032 3.07564ZM25.5009 1.11437C26.7658 1.484 27.9906 1.97881 29.1573 2.59148C28.7251 2.50581 28.2824 2.48644 27.8444 2.53403C27.0867 2.0582 26.2657 1.69134 25.4058 1.44426C24.9713 1.31689 24.5288 1.2182 24.0814 1.14884C23.9927 0.982364 23.8823 0.828388 23.7532 0.690934C24.3363 0.804726 24.9189 0.945872 25.5009 1.11437ZM23.2855 0.607232C23.4929 0.731993 23.6678 0.904094 23.7958 1.10945C23.4492 1.06499 23.1 1.04251 22.7505 1.04216C22.409 0.767279 22.0278 0.545919 21.6198 0.385666C22.181 0.438185 22.7341 0.512041 23.2855 0.607232ZM19.8572 0.328223C20.1116 0.328223 20.3676 0.328223 20.6236 0.339712C21.2588 0.448505 21.8633 0.692538 22.396 1.05529C22.1127 1.06859 21.8308 1.1026 21.5525 1.15704C20.5662 0.731965 19.8884 0.492346 19.2008 0.369254C19.4125 0.347918 19.634 0.328223 19.8572 0.328223ZM21.198 1.24403C20.9901 1.30145 20.788 1.37781 20.5941 1.47216C19.4649 1.07629 18.2801 0.86191 17.0838 0.837004C17.4902 0.694922 17.9073 0.585165 18.331 0.508758C19.291 0.543224 20.0098 0.746736 21.1996 1.23746L21.198 1.24403ZM17.4087 0.492346C17.4251 0.492346 17.4448 0.492346 17.4612 0.492346C17.1484 0.579306 16.8423 0.689014 16.5455 0.820591C16.1221 0.820591 15.6992 0.844663 15.2769 0.892805C15.9798 0.721003 16.6914 0.587322 17.4087 0.492346ZM12.3919 1.85949C12.7021 1.72819 13.0155 1.60674 13.3306 1.49185C14.2287 1.24375 15.1519 1.09785 16.0827 1.05693C15.7599 1.23771 15.4634 1.46191 15.2014 1.72327C13.9256 1.82419 12.6657 2.07201 11.4466 2.46182C11.7421 2.23176 12.0586 2.03009 12.3919 1.85949ZM10.5391 2.75232C10.7196 2.65384 10.9018 2.56358 11.0823 2.47167C11.0183 2.52583 10.9576 2.58327 10.8969 2.63579C10.7147 2.70308 10.5342 2.78022 10.3553 2.85407C10.416 2.82453 10.4767 2.79006 10.5391 2.75232ZM8.04136 4.38041C8.05833 4.37895 8.07468 4.37331 8.08895 4.364C8.85285 3.81876 9.67928 3.36694 10.5506 3.0182C10.2152 3.4142 9.96395 3.87433 9.8121 4.37057C8.48364 4.98939 7.23317 5.76343 6.08681 6.67649C6.27887 6.18204 6.55664 5.72534 6.90736 5.3274C7.26348 5.0008 7.64257 4.6824 8.04136 4.38041ZM4.85107 7.44294C5.25697 6.95386 5.68529 6.48666 6.13605 6.04134C5.98071 6.32283 5.85688 6.6206 5.7668 6.92924C5.35106 7.27499 4.94625 7.647 4.55239 8.04528C4.63735 7.83758 4.73717 7.63628 4.85107 7.44294ZM5.67162 7.29359C5.54535 7.93459 5.55038 8.59453 5.68639 9.23352C5.19609 9.70186 4.72997 10.1949 4.28982 10.7106C4.15278 9.98779 4.18423 9.24308 4.38172 8.53436C4.8002 8.09123 5.23345 7.67764 5.67654 7.29359H5.67162ZM4.26684 8.18478C4.23894 8.2652 4.21104 8.3489 4.18643 8.4244C4.03709 8.58852 3.89103 8.75265 3.74333 8.91677C3.91182 8.66949 4.08632 8.42549 4.26684 8.18478ZM2.96546 10.4464C3.00156 10.3249 3.04423 10.2018 3.09018 10.0804C3.40855 9.65368 3.73677 9.24939 4.07483 8.86753C3.94681 9.54943 3.95909 10.2503 4.11094 10.9273C3.65439 11.4779 3.22923 12.0538 2.83745 12.6522C2.71435 11.9166 2.7581 11.1628 2.96546 10.4464ZM3.49553 15.0993C3.59399 15.2798 3.70231 15.4603 3.81554 15.6392C3.75482 15.7426 3.69246 15.8444 3.63338 15.9478C2.97621 17.1005 2.44736 18.3217 2.05629 19.5897C1.97916 19.46 1.90367 19.3304 1.8331 19.2007C1.44087 18.5075 1.15957 17.7571 0.999426 16.9768C1.43285 15.6644 2.01658 14.4066 2.73898 13.2283C2.91078 13.8815 3.16501 14.5102 3.49553 15.0993ZM0.984656 15.0205C1.03225 14.8465 1.07328 14.6676 1.12579 14.492C1.51026 13.1663 2.0328 11.8846 2.68483 10.668C2.51644 11.4113 2.5114 12.1824 2.67006 12.9279C1.96023 14.0545 1.37581 15.2554 0.927218 16.5091C0.87452 16.0127 0.893866 15.5113 0.984656 15.0205ZM0.625257 16.6617C0.648232 16.8258 0.676131 16.99 0.712235 17.1672C0.595717 17.5431 0.497252 17.9205 0.406992 18.3029C0.446378 17.7597 0.523509 17.2148 0.617052 16.6683L0.625257 16.6617ZM0.328219 19.826C0.437671 19.0725 0.598323 18.3273 0.809059 17.5956C0.987357 18.2117 1.23453 18.8057 1.54591 19.3665C1.66407 19.5815 1.79536 19.7948 1.93157 20.0098C1.57232 21.2923 1.38524 22.6169 1.37524 23.9488C0.905094 23.1879 0.56925 22.3518 0.382375 21.4771C0.341348 20.9223 0.328219 20.3758 0.328219 19.826ZM0.51038 22.685C0.743571 23.271 1.03554 23.8319 1.3818 24.3591C1.39552 24.9248 1.44209 25.4892 1.52129 26.0495C1.27985 25.6346 1.0745 25.1998 0.907525 24.7497C0.738179 24.0692 0.606147 23.3799 0.512022 22.685H0.51038ZM1.29646 26.0955C1.39493 26.2596 1.49996 26.4418 1.61319 26.6125C1.66243 26.8816 1.71987 27.1475 1.7773 27.415C1.60663 26.9703 1.44252 26.5288 1.29646 26.0955ZM1.60991 24.7005C2.22534 25.5647 2.92936 26.3623 3.71051 27.0802C3.68309 27.6569 3.69296 28.2347 3.74005 28.8101C3.01745 28.1248 2.37395 27.3607 1.82161 26.5321C1.71107 25.9241 1.64035 25.3095 1.60991 24.6922V24.7005ZM2.27948 28.3686C2.13999 27.9353 2.02019 27.502 1.92336 27.0556C2.46965 27.7987 3.08627 28.4873 3.76467 29.1121C3.80767 29.5205 3.87452 29.926 3.96488 30.3266C3.33908 29.7289 2.77448 29.0702 2.27948 28.3604V28.3686ZM2.7554 29.4633C2.70288 29.3681 2.65529 29.2663 2.60277 29.1695C3.05151 29.7237 3.54022 30.2443 4.06499 30.727C4.20405 31.259 4.39307 31.7767 4.62952 32.2731C3.92622 31.3885 3.29926 30.4458 2.7554 29.4551V29.4633ZM6.03758 33.8634C5.82424 33.6484 5.61582 33.4301 5.41397 33.2069C4.95533 32.5313 4.60228 31.7897 4.36695 31.0077C5.23244 31.7682 6.15833 32.457 7.13547 33.0674C7.27895 33.8393 7.53786 34.5851 7.9035 35.2798C7.25036 34.848 6.62749 34.372 6.03922 33.8552L6.03758 33.8634ZM8.00689 35.5998L8.14475 35.6868L8.16772 35.7229L8.00689 35.5998ZM7.39477 33.2233C8.51158 33.9082 9.67338 34.5169 10.8722 35.0451C10.8509 35.705 10.9222 36.3646 11.0839 37.0047C10.1207 36.578 9.1885 36.0844 8.29408 35.5276C7.8643 34.8139 7.56012 34.0317 7.39477 33.2151V33.2233ZM8.53368 35.9855C8.54429 35.9671 8.54941 35.946 8.54845 35.9248C9.39452 36.4301 10.2715 36.8818 11.1742 37.2772C11.2206 37.4065 11.2754 37.5326 11.3383 37.6547C10.3588 37.1769 9.42072 36.6186 8.53368 35.9855ZM14.3924 38.8446C13.4713 38.5715 12.5713 38.232 11.6994 37.8286C11.6051 37.6926 11.5238 37.5481 11.4565 37.397C12.4477 37.8186 13.4625 38.1825 14.4958 38.4868L14.3924 38.8446ZM11.3432 37.1131C11.1487 36.4679 11.0584 35.7959 11.0757 35.1222C12.371 35.6836 13.6995 36.1649 15.0537 36.5632L14.5614 38.2734C13.4656 37.9539 12.3908 37.5663 11.3432 37.1131ZM14.6057 38.9069L14.7091 38.5475C15.7454 38.8449 16.798 39.0822 17.8617 39.2581C17.7222 39.3515 17.5738 39.4306 17.4186 39.4945C16.4679 39.3675 15.5278 39.1711 14.6057 38.9069ZM21.0815 39.634C19.9911 39.695 18.8976 39.6642 17.8124 39.5421C17.9327 39.4707 18.0484 39.3917 18.1587 39.3057C19.1335 39.4575 20.1167 39.5484 21.1028 39.5782C21.0886 39.5939 21.079 39.6132 21.0749 39.634H21.0815ZM18.3802 39.1219C18.8598 38.668 19.2735 38.1493 19.6094 37.5808C20.9053 37.7775 22.2129 37.8872 23.5234 37.9091C22.9457 38.5025 22.2715 38.9936 21.5295 39.3615C20.4756 39.3525 19.4234 39.2724 18.3802 39.1219ZM21.5377 39.6028L21.5771 39.5847C21.6296 39.5847 21.6838 39.5847 21.7412 39.5847L21.5377 39.6028ZM24.2734 39.1892C23.5206 39.2985 22.7612 39.3572 22.0005 39.3648C22.6786 38.9755 23.2938 38.4858 23.8254 37.9123C24.979 37.9204 26.1314 37.8365 27.2717 37.6612C26.6652 38.1833 25.985 38.613 25.2531 38.9365C24.9293 39.0317 24.6027 39.1159 24.2734 39.1892ZM26.3806 38.5918C26.8408 38.3037 27.2736 37.9741 27.6738 37.6071C28.3749 37.4805 29.066 37.3034 29.7415 37.077C28.6708 37.6854 27.5456 38.1925 26.3806 38.5918ZM27.9691 37.3199C28.2594 37.0306 28.5334 36.7254 28.7897 36.4057C29.6988 36.2411 30.5902 35.9899 31.4515 35.6556C31.1348 35.974 30.7951 36.276 30.4521 36.5649C29.6517 36.8987 28.8199 37.1516 27.9691 37.3199ZM31.3925 36.0069C31.5861 35.822 31.7737 35.631 31.9554 35.4341C32.1359 35.352 32.3115 35.27 32.4805 35.1764C32.1277 35.4735 31.765 35.7525 31.3925 36.0134V36.0069ZM33.5259 34.2639C33.1505 34.5477 32.7513 34.7987 32.3328 35.0139C32.7062 34.5799 33.0526 34.1233 33.37 33.6468C33.9479 33.3866 34.4977 33.0682 35.0111 32.6965C34.5436 33.2481 34.0461 33.7735 33.521 34.2705L33.5259 34.2639ZM35.7611 31.7561C35.1369 32.3895 34.4072 32.9093 33.6047 33.2923C34.2997 32.1728 34.8453 30.9672 35.2277 29.7062C35.4558 29.5995 35.6806 29.4896 35.894 29.378C36.4579 29.0739 36.9853 28.7066 37.4662 28.2833C37.2494 29.0203 36.9818 29.7414 36.6653 30.4415C36.3797 30.8928 36.0761 31.3359 35.7561 31.7627L35.7611 31.7561ZM37.4383 29.0891C37.5663 28.7198 37.6861 28.3505 37.7878 27.9747C37.9147 27.8445 38.0345 27.7116 38.1472 27.5759C37.9273 28.0989 37.6893 28.6055 37.4333 29.0957L37.4383 29.0891ZM38.8824 25.4948C38.848 25.613 38.8102 25.7311 38.7741 25.851C38.5811 26.3724 38.3039 26.8586 37.9536 27.2903C38.242 26.0219 38.3922 24.726 38.4016 23.4252C38.9178 22.9145 39.3248 22.3042 39.5979 21.6314C39.486 22.942 39.2447 24.2383 38.8775 25.5014L38.8824 25.4948Z" fill="#1A43C2"/>
</g>
</g>
</g>
</g>
<defs>
<clipPath id="clip0_26_276">
<rect width="40" height="40" fill="white"/>
</clipPath>
</defs>
</svg>
