<svg width="243" height="34" viewBox="0 0 243 34" fill="none" xmlns="http://www.w3.org/2000/svg">
<g style="mix-blend-mode:difference">
<path d="M231.549 33.2799C231.431 33.2799 231.299 33.2359 231.153 33.1479C231.006 33.0599 230.903 32.8692 230.845 32.5759L223.893 4.67991C223.687 3.85858 223.453 3.28658 223.189 2.96391C222.954 2.64124 222.543 2.42124 221.957 2.30391L221.297 2.17191C220.886 2.08391 220.681 1.89324 220.681 1.59991C220.681 1.30658 220.901 1.15991 221.341 1.15991H228.865C229.275 1.15991 229.481 1.32125 229.481 1.64391C229.481 1.96658 229.231 2.14258 228.733 2.17191L227.897 2.25991C227.398 2.28925 227.075 2.45058 226.929 2.74391C226.811 3.00791 226.826 3.46258 226.973 4.10791L232.077 25.2719C232.135 25.4479 232.223 25.5359 232.341 25.5359C232.487 25.5359 232.575 25.4479 232.605 25.2719L237.665 5.03191C238.075 3.35991 237.635 2.43591 236.345 2.25991L235.685 2.17191C235.186 2.08391 234.937 1.90791 234.937 1.64391C234.937 1.32125 235.142 1.15991 235.553 1.15991H241.713C242.153 1.15991 242.373 1.30658 242.373 1.59991C242.373 1.89324 242.167 2.08391 241.757 2.17191L241.097 2.30391C240.539 2.42124 240.099 2.71458 239.777 3.18391C239.483 3.62391 239.234 4.25458 239.029 5.07591L232.209 32.5759C232.15 32.8692 232.047 33.0599 231.901 33.1479C231.783 33.2359 231.666 33.2799 231.549 33.2799Z" fill="black"/>
<path d="M203.289 32.8399C202.849 32.8399 202.629 32.6786 202.629 32.3559C202.629 32.0919 202.82 31.9159 203.201 31.8279L204.213 31.6519C204.829 31.5346 205.225 31.3732 205.401 31.1679C205.606 30.9626 205.709 30.5519 205.709 29.9359V4.06391C205.709 3.44791 205.606 3.03725 205.401 2.83191C205.225 2.62658 204.829 2.46525 204.213 2.34791L203.201 2.17191C202.82 2.08391 202.629 1.90791 202.629 1.64391C202.629 1.32125 202.849 1.15991 203.289 1.15991H218.073C218.748 1.15991 219.114 1.49725 219.173 2.17191L219.525 9.47591C219.584 9.97458 219.393 10.2239 218.953 10.2239C218.601 10.2239 218.396 10.0332 218.337 9.65191L218.073 8.02391C217.75 6.02925 217.09 4.57725 216.093 3.66791C215.096 2.72924 213.717 2.25991 211.957 2.25991C210.784 2.25991 209.962 2.43591 209.493 2.78791C209.053 3.11058 208.833 3.69725 208.833 4.54791V15.1519C208.833 15.5626 209.038 15.7679 209.449 15.7679H211.649C212.94 15.7679 213.732 15.0786 214.025 13.6999L214.465 11.4999C214.582 11.0599 214.832 10.8692 215.213 10.9279C215.536 10.9866 215.697 11.2359 215.697 11.6759V21.5759C215.697 22.0159 215.536 22.2652 215.213 22.3239C214.832 22.3826 214.582 22.1919 214.465 21.7519L214.025 19.5959C213.82 18.5692 213.526 17.8946 213.145 17.5719C212.793 17.2492 212.28 17.0879 211.605 17.0879H209.449C209.038 17.0879 208.833 17.2932 208.833 17.7039V28.7479C208.833 29.8039 209.097 30.5666 209.625 31.0359C210.182 31.5052 211.18 31.7399 212.617 31.7399C214.084 31.7399 215.33 31.3732 216.357 30.6399C217.413 29.8772 218.146 28.4692 218.557 26.4159L219.085 23.8199C219.173 23.4386 219.393 23.2479 219.745 23.2479C220.156 23.2479 220.332 23.4972 220.273 23.9959L219.833 31.8279C219.774 32.5026 219.408 32.8399 218.733 32.8399H203.289Z" fill="black"/>
<path d="M187.916 32.8399C187.476 32.8399 187.256 32.6786 187.256 32.3559C187.256 32.0332 187.447 31.8572 187.828 31.8279L189.808 31.5199C190.395 31.4319 190.791 31.2852 190.996 31.0799C191.201 30.8452 191.304 30.4199 191.304 29.8039V19.4199C191.304 18.7746 191.157 18.1439 190.864 17.5279L184.396 3.97591C184.191 3.47725 183.956 3.09591 183.692 2.83191C183.428 2.56791 183.047 2.37725 182.548 2.25991L182.152 2.17191C181.741 2.08391 181.536 1.89324 181.536 1.59991C181.536 1.30658 181.756 1.15991 182.196 1.15991H189.72C190.131 1.15991 190.336 1.32125 190.336 1.64391C190.336 1.96658 190.087 2.14258 189.588 2.17191L188.752 2.25991C188.253 2.28925 187.901 2.45058 187.696 2.74391C187.491 3.03725 187.535 3.49191 187.828 4.10791L193.24 15.6359C193.357 15.8412 193.504 15.9439 193.68 15.9439C193.856 15.9439 194.003 15.8412 194.12 15.6359L199.312 5.03191C199.693 4.26924 199.781 3.65324 199.576 3.18391C199.4 2.68525 198.975 2.39191 198.3 2.30391L197.332 2.17191C196.833 2.08391 196.584 1.90791 196.584 1.64391C196.584 1.32125 196.789 1.15991 197.2 1.15991H203.448C203.888 1.15991 204.108 1.30658 204.108 1.59991C204.108 1.89324 203.903 2.08391 203.492 2.17191L203.052 2.25991C202.641 2.34791 202.275 2.59725 201.952 3.00791C201.659 3.41858 201.263 4.10791 200.764 5.07591L195 16.6479C194.795 17.0586 194.648 17.4546 194.56 17.8359C194.472 18.1879 194.428 18.5986 194.428 19.0679V29.8039C194.428 30.4199 194.531 30.8452 194.736 31.0799C194.971 31.2852 195.367 31.4319 195.924 31.5199L197.904 31.8279C198.285 31.8572 198.476 32.0332 198.476 32.3559C198.476 32.6786 198.256 32.8399 197.816 32.8399H187.916Z" fill="black"/>
<path d="M165.095 32.84C164.655 32.84 164.435 32.6933 164.435 32.4C164.435 32.1066 164.64 31.916 165.051 31.828L165.711 31.696C166.297 31.5786 166.737 31.3 167.031 30.86C167.324 30.3906 167.573 29.7453 167.779 28.924L174.599 1.42397C174.657 1.13064 174.745 0.939969 174.863 0.851969C175.009 0.76397 175.141 0.719971 175.259 0.719971C175.405 0.719971 175.537 0.76397 175.655 0.851969C175.801 0.939969 175.904 1.13064 175.963 1.42397L182.915 29.32C183.12 30.1413 183.355 30.7133 183.619 31.036C183.883 31.3586 184.293 31.5786 184.851 31.696L185.511 31.828C185.921 31.916 186.127 32.1066 186.127 32.4C186.127 32.6933 185.907 32.84 185.467 32.84H177.943C177.532 32.84 177.327 32.6786 177.327 32.356C177.327 32.0333 177.576 31.8573 178.075 31.828L178.911 31.74C179.409 31.6813 179.717 31.52 179.835 31.256C179.981 30.992 179.981 30.5373 179.835 29.892L178.163 23.072C177.987 22.3093 177.503 21.928 176.711 21.928H172.091C171.328 21.928 170.844 22.3093 170.639 23.072L169.143 28.968C168.703 30.64 169.143 31.564 170.463 31.74L171.123 31.828C171.621 31.916 171.871 32.092 171.871 32.356C171.871 32.6786 171.665 32.84 171.255 32.84H165.095ZM171.959 20.608H176.799C177.268 20.608 177.459 20.3586 177.371 19.86L174.555 8.06797H174.335L171.387 19.86C171.299 20.3586 171.489 20.608 171.959 20.608Z" fill="black"/>
<path d="M155.405 33.236C154.818 33.236 154.158 33.1773 153.425 33.06C152.721 32.9426 152.046 32.796 151.401 32.62C150.785 32.444 150.301 32.2533 149.949 32.048C149.743 31.9306 149.582 31.8133 149.465 31.696C149.377 31.5493 149.333 31.3146 149.333 30.992L149.113 24.084C149.113 23.4973 149.303 23.204 149.685 23.204C150.007 23.204 150.227 23.468 150.345 23.996L150.741 25.668C151.738 29.8626 153.601 31.96 156.329 31.96C157.795 31.96 158.954 31.476 159.805 30.508C160.685 29.5106 161.125 28.1173 161.125 26.328C161.125 24.5973 160.67 22.984 159.761 21.488C158.881 19.992 157.458 18.5106 155.493 17.044C153.322 15.4893 151.738 13.9933 150.741 12.556C149.743 11.0893 149.245 9.53464 149.245 7.89197C149.245 5.7213 149.993 3.99064 151.489 2.69997C153.014 1.37997 154.95 0.719971 157.297 0.719971C158.177 0.719971 159.027 0.822637 159.849 1.02797C160.67 1.2333 161.345 1.52664 161.873 1.90797C162.049 2.0253 162.181 2.1573 162.269 2.30397C162.386 2.45064 162.445 2.6413 162.445 2.87597L162.577 9.51997C162.577 10.0186 162.386 10.268 162.005 10.268C161.741 10.268 161.55 10.0626 161.433 9.65197L161.125 8.55197C160.479 6.2933 159.805 4.65064 159.101 3.62397C158.426 2.56797 157.443 2.03997 156.153 2.03997C154.891 2.03997 153.879 2.45064 153.117 3.27197C152.383 4.0933 152.017 5.25197 152.017 6.74797C152.017 8.0093 152.427 9.21197 153.249 10.356C154.07 11.5 155.507 12.8933 157.561 14.536C159.761 16.3253 161.359 18.056 162.357 19.728C163.383 21.3706 163.897 23.1306 163.897 25.008C163.897 26.6506 163.53 28.088 162.797 29.32C162.063 30.552 161.051 31.52 159.761 32.224C158.499 32.8986 157.047 33.236 155.405 33.236Z" fill="black"/>
<path d="M136.248 33.2359C134.664 33.2359 133.256 32.8692 132.024 32.1359C130.822 31.3732 129.883 30.3319 129.208 29.0119C128.534 27.6626 128.196 26.1226 128.196 24.3919V4.06391C128.196 3.44791 128.094 3.03725 127.888 2.83191C127.712 2.62658 127.316 2.46525 126.7 2.34791L125.688 2.17191C125.307 2.08391 125.116 1.90791 125.116 1.64391C125.116 1.32125 125.336 1.15991 125.776 1.15991H133.828C134.268 1.15991 134.488 1.33591 134.488 1.68791C134.488 1.95191 134.327 2.11324 134.004 2.17191L132.816 2.34791C132.23 2.43591 131.834 2.59724 131.628 2.83191C131.423 3.06658 131.32 3.49191 131.32 4.10791V24.4359C131.32 26.6652 131.819 28.3959 132.816 29.6279C133.814 30.8599 135.207 31.4759 136.996 31.4759C138.815 31.4759 140.223 30.8599 141.22 29.6279C142.218 28.3959 142.716 26.6652 142.716 24.4359V4.98791C142.716 3.40391 142.218 2.52391 141.22 2.34791L140.032 2.17191C139.71 2.11324 139.548 1.95191 139.548 1.68791C139.548 1.33591 139.768 1.15991 140.208 1.15991H146.544C146.984 1.15991 147.204 1.32125 147.204 1.64391C147.204 1.90791 147.014 2.08391 146.632 2.17191L145.62 2.34791C144.623 2.52391 144.124 3.38925 144.124 4.94391V24.3919C144.124 27.0612 143.406 29.2026 141.968 30.8159C140.531 32.4292 138.624 33.2359 136.248 33.2359Z" fill="black"/>
<path d="M109.176 32.3999C109.059 32.3999 108.927 32.3559 108.78 32.2679C108.634 32.1799 108.531 31.9892 108.472 31.6959L101.828 4.72391C101.799 4.51858 101.711 4.43058 101.564 4.45991C101.418 4.45991 101.344 4.56258 101.344 4.76791L100.464 29.0559C100.435 29.8772 100.567 30.5079 100.86 30.9479C101.154 31.3586 101.667 31.6226 102.4 31.7399L102.972 31.8279C103.354 31.8572 103.544 32.0332 103.544 32.3559C103.544 32.6786 103.324 32.8399 102.884 32.8399H96.5924C96.1524 32.8399 95.9324 32.6786 95.9324 32.3559C95.9324 32.0332 96.1231 31.8572 96.5044 31.8279L97.0764 31.7399C97.8391 31.6226 98.3524 31.3586 98.6164 30.9479C98.9098 30.5079 99.0711 29.8772 99.1004 29.0559L99.9804 4.06391C100.01 3.44791 99.9218 3.03725 99.7164 2.83191C99.5111 2.62658 99.0711 2.46525 98.3964 2.34791L97.3844 2.17191C97.0031 2.08391 96.8124 1.90791 96.8124 1.64391C96.8124 1.32125 97.0324 1.15991 97.4724 1.15991H102.752C103.662 1.15991 104.219 1.59991 104.424 2.47991L109.748 24.4359C109.807 24.6412 109.895 24.7439 110.012 24.7439C110.159 24.7439 110.247 24.6412 110.276 24.4359L115.82 2.25991C115.996 1.52658 116.466 1.15991 117.228 1.15991H122.42C122.86 1.15991 123.08 1.32125 123.08 1.64391C123.08 1.90791 122.89 2.08391 122.508 2.17191L121.496 2.34791C120.88 2.46525 120.47 2.62658 120.264 2.83191C120.059 3.03725 119.971 3.44791 120 4.06391L120.88 29.9359C120.91 30.5519 121.012 30.9626 121.188 31.1679C121.364 31.3732 121.76 31.5346 122.376 31.6519L123.388 31.8279C123.77 31.9159 123.96 32.0919 123.96 32.3559C123.96 32.6786 123.74 32.8399 123.3 32.8399H115.336C114.896 32.8399 114.676 32.6786 114.676 32.3559C114.676 32.0919 114.867 31.9159 115.248 31.8279L116.26 31.6519C116.876 31.5346 117.287 31.3732 117.492 31.1679C117.698 30.9626 117.786 30.5519 117.756 29.9359L117.008 4.76791C117.008 4.56258 116.935 4.45991 116.788 4.45991C116.671 4.43058 116.583 4.50391 116.524 4.67991L109.836 31.6959C109.778 31.9892 109.675 32.1799 109.528 32.2679C109.411 32.3559 109.294 32.3999 109.176 32.3999Z" fill="black"/>
<path d="M67.5985 32.84C67.1585 32.84 66.9385 32.6933 66.9385 32.4C66.9385 32.1066 67.1438 31.916 67.5545 31.828L68.2145 31.696C68.8011 31.5786 69.2411 31.3 69.5345 30.86C69.8278 30.3906 70.0771 29.7453 70.2825 28.924L77.1025 1.42397C77.1611 1.13064 77.2491 0.939969 77.3665 0.851969C77.5131 0.76397 77.6451 0.719971 77.7625 0.719971C77.9091 0.719971 78.0411 0.76397 78.1585 0.851969C78.3051 0.939969 78.4078 1.13064 78.4665 1.42397L85.4185 29.32C85.6238 30.1413 85.8585 30.7133 86.1225 31.036C86.3865 31.3586 86.7971 31.5786 87.3545 31.696L88.0145 31.828C88.4251 31.916 88.6305 32.1066 88.6305 32.4C88.6305 32.6933 88.4105 32.84 87.9705 32.84H80.4465C80.0358 32.84 79.8305 32.6786 79.8305 32.356C79.8305 32.0333 80.0798 31.8573 80.5785 31.828L81.4145 31.74C81.9131 31.6813 82.2211 31.52 82.3385 31.256C82.4851 30.992 82.4851 30.5373 82.3385 29.892L80.6665 23.072C80.4905 22.3093 80.0065 21.928 79.2145 21.928H74.5945C73.8318 21.928 73.3478 22.3093 73.1425 23.072L71.6465 28.968C71.2065 30.64 71.6465 31.564 72.9665 31.74L73.6265 31.828C74.1251 31.916 74.3745 32.092 74.3745 32.356C74.3745 32.6786 74.1691 32.84 73.7585 32.84H67.5985ZM74.4625 20.608H79.3025C79.7718 20.608 79.9625 20.3586 79.8745 19.86L77.0585 8.06797H76.8385L73.8905 19.86C73.8025 20.3586 73.9931 20.608 74.4625 20.608Z" fill="black"/>
<path d="M57.9085 33.236C57.3218 33.236 56.6618 33.1773 55.9285 33.06C55.2245 32.9426 54.5498 32.796 53.9045 32.62C53.2885 32.444 52.8045 32.2533 52.4525 32.048C52.2472 31.9306 52.0858 31.8133 51.9685 31.696C51.8805 31.5493 51.8365 31.3146 51.8365 30.992L51.6165 24.084C51.6165 23.4973 51.8072 23.204 52.1885 23.204C52.5112 23.204 52.7312 23.468 52.8485 23.996L53.2445 25.668C54.2418 29.8626 56.1045 31.96 58.8325 31.96C60.2992 31.96 61.4579 31.476 62.3085 30.508C63.1885 29.5106 63.6285 28.1173 63.6285 26.328C63.6285 24.5973 63.1738 22.984 62.2645 21.488C61.3845 19.992 59.9619 18.5106 57.9965 17.044C55.8259 15.4893 54.2418 13.9933 53.2445 12.556C52.2472 11.0893 51.7485 9.53464 51.7485 7.89197C51.7485 5.7213 52.4965 3.99064 53.9925 2.69997C55.5178 1.37997 57.4538 0.719971 59.8005 0.719971C60.6805 0.719971 61.5312 0.822637 62.3525 1.02797C63.1738 1.2333 63.8485 1.52664 64.3765 1.90797C64.5525 2.0253 64.6845 2.1573 64.7725 2.30397C64.8898 2.45064 64.9485 2.6413 64.9485 2.87597L65.0805 9.51997C65.0805 10.0186 64.8898 10.268 64.5085 10.268C64.2445 10.268 64.0538 10.0626 63.9365 9.65197L63.6285 8.55197C62.9832 6.2933 62.3085 4.65064 61.6045 3.62397C60.9298 2.56797 59.9472 2.03997 58.6565 2.03997C57.3952 2.03997 56.3832 2.45064 55.6205 3.27197C54.8872 4.0933 54.5205 5.25197 54.5205 6.74797C54.5205 8.0093 54.9312 9.21197 55.7525 10.356C56.5738 11.5 58.0112 12.8933 60.0645 14.536C62.2645 16.3253 63.8632 18.056 64.8605 19.728C65.8872 21.3706 66.4005 23.1306 66.4005 25.008C66.4005 26.6506 66.0338 28.088 65.3005 29.32C64.5672 30.552 63.5552 31.52 62.2645 32.224C61.0032 32.8986 59.5512 33.236 57.9085 33.236Z" fill="black"/>
<path d="M40.3515 32.8399C39.9115 32.8399 39.6915 32.6786 39.6915 32.3559C39.6915 32.0919 39.8821 31.9159 40.2635 31.8279L41.2755 31.6519C41.8915 31.5346 42.2875 31.3732 42.4635 31.1679C42.6688 30.9626 42.7715 30.5519 42.7715 29.9359V4.06391C42.7715 3.44791 42.6688 3.03725 42.4635 2.83191C42.2875 2.62658 41.8915 2.46525 41.2755 2.34791L40.2635 2.17191C39.8821 2.08391 39.6915 1.90791 39.6915 1.64391C39.6915 1.32125 39.9115 1.15991 40.3515 1.15991H48.3155C48.7555 1.15991 48.9755 1.32125 48.9755 1.64391C48.9755 1.90791 48.7848 2.08391 48.4035 2.17191L47.3915 2.34791C46.7755 2.46525 46.3648 2.62658 46.1595 2.83191C45.9835 3.03725 45.8955 3.44791 45.8955 4.06391V29.9359C45.8955 30.5519 45.9835 30.9626 46.1595 31.1679C46.3648 31.3732 46.7755 31.5346 47.3915 31.6519L48.4035 31.8279C48.7848 31.9159 48.9755 32.0919 48.9755 32.3559C48.9755 32.6786 48.7555 32.8399 48.3155 32.8399H40.3515Z" fill="black"/>
<path d="M22.1757 32.8399C21.7357 32.8399 21.5157 32.6786 21.5157 32.3559C21.5157 32.0919 21.7064 31.9159 22.0877 31.8279L23.0997 31.6519C23.7157 31.5346 24.1117 31.3732 24.2877 31.1679C24.493 30.9626 24.5957 30.5519 24.5957 29.9359V4.06391C24.5957 3.44791 24.493 3.03725 24.2877 2.83191C24.1117 2.62658 23.7157 2.46525 23.0997 2.34791L22.0877 2.17191C21.7064 2.08391 21.5157 1.90791 21.5157 1.64391C21.5157 1.32125 21.7357 1.15991 22.1757 1.15991H30.2277C30.6677 1.15991 30.8877 1.33591 30.8877 1.68791C30.8877 1.95191 30.7264 2.11324 30.4037 2.17191L29.2157 2.34791C28.5997 2.43591 28.189 2.59724 27.9837 2.83191C27.8077 3.06658 27.7197 3.49191 27.7197 4.10791V28.7479C27.7197 29.8039 28.013 30.5666 28.5997 31.0359C29.2157 31.5052 29.9784 31.7399 30.8877 31.7399C31.5624 31.7399 32.2517 31.6079 32.9557 31.3439C33.689 31.0506 34.349 30.5226 34.9357 29.7599C35.5224 28.9679 35.9624 27.8239 36.2557 26.3279L36.8277 23.3799C36.9157 22.9986 37.1357 22.8079 37.4877 22.8079C37.8984 22.8079 38.0744 23.0572 38.0157 23.5559L37.4877 31.8279C37.429 32.5026 37.0624 32.8399 36.3877 32.8399H22.1757Z" fill="black"/>
<path d="M0.868008 32.84C0.428008 32.84 0.208008 32.6933 0.208008 32.4C0.208008 32.1066 0.413341 31.916 0.824008 31.828L1.48401 31.696C2.07067 31.5786 2.51067 31.3 2.80401 30.86C3.09734 30.3906 3.34667 29.7453 3.55201 28.924L10.372 1.42397C10.4307 1.13064 10.5187 0.939969 10.636 0.851969C10.7827 0.76397 10.9147 0.719971 11.032 0.719971C11.1787 0.719971 11.3107 0.76397 11.428 0.851969C11.5747 0.939969 11.6773 1.13064 11.736 1.42397L18.688 29.32C18.8933 30.1413 19.128 30.7133 19.392 31.036C19.656 31.3586 20.0667 31.5786 20.624 31.696L21.284 31.828C21.6947 31.916 21.9 32.1066 21.9 32.4C21.9 32.6933 21.68 32.84 21.24 32.84H13.716C13.3053 32.84 13.1 32.6786 13.1 32.356C13.1 32.0333 13.3493 31.8573 13.848 31.828L14.684 31.74C15.1827 31.6813 15.4907 31.52 15.608 31.256C15.7547 30.992 15.7547 30.5373 15.608 29.892L13.936 23.072C13.76 22.3093 13.276 21.928 12.484 21.928H7.86401C7.10134 21.928 6.61734 22.3093 6.41201 23.072L4.91601 28.968C4.47601 30.64 4.91601 31.564 6.23601 31.74L6.89601 31.828C7.39467 31.916 7.64401 32.092 7.64401 32.356C7.64401 32.6786 7.43868 32.84 7.02801 32.84H0.868008ZM7.73201 20.608H12.572C13.0413 20.608 13.232 20.3586 13.144 19.86L10.328 8.06797H10.108L7.16001 19.86C7.07201 20.3586 7.26267 20.608 7.73201 20.608Z" fill="black"/>
</g>
</svg>
